# This file uses centimeters as units for non-parametric coordinates.

mtllib Box.mtl
g default
v -2.451300 0.039070 -0.149891
v -2.446269 0.660469 -0.780921
v -2.449438 0.124584 -0.065667
v -2.444408 0.745984 -0.696697
v -2.501153 0.125362 -0.065314
v -2.496122 0.746762 -0.696344
v -2.503014 0.039847 -0.149538
v -2.497984 0.661247 -0.780568
v -2.347506 0.038735 -0.782002
v -1.718083 0.661783 -0.782002
v -2.431955 0.124048 -0.782002
v -1.802532 0.747096 -0.782002
v -2.431955 0.124048 -0.833724
v -1.802532 0.747096 -0.833724
v -2.347506 0.038735 -0.833724
v -1.718083 0.661783 -0.833724
v -2.347506 0.038735 -0.007427
v -1.718083 0.661783 -0.007427
v -2.431955 0.124048 -0.007427
v -1.802532 0.747096 -0.007427
v -2.431955 0.124048 -0.059149
v -1.802532 0.747096 -0.059149
v -2.347506 0.038735 -0.059149
v -1.718083 0.661783 -0.059149
v -2.469359 0.054619 -0.047831
v -1.718172 0.054619 -0.047831
v -2.469359 0.805806 -0.047831
v -1.718172 0.805806 -0.047831
v -2.469359 0.805806 -0.799018
v -1.718172 0.805806 -0.799018
v -2.469359 0.054619 -0.799018
v -1.718172 0.054619 -0.799018
v -2.469359 0.805806 -0.147559
v -2.469359 0.054619 -0.147559
v -1.718172 0.054619 -0.147559
v -1.718172 0.805806 -0.147559
v -2.469359 0.805806 -0.703684
v -2.469359 0.054619 -0.703684
v -1.718172 0.054619 -0.703684
v -1.718172 0.805806 -0.703684
v -2.469359 0.702485 -0.147559
v -2.469359 0.702485 -0.703684
v -1.718172 0.702485 -0.703684
v -1.718172 0.702485 -0.147559
v -2.469359 0.164344 -0.147559
v -2.469359 0.164344 -0.703684
v -1.718172 0.164344 -0.703684
v -1.718172 0.164344 -0.147559
v -1.837348 0.702485 -0.047831
v -1.837348 0.164344 -0.047831
v -1.837348 0.054619 -0.047831
v -1.837348 0.054619 -0.147559
v -1.837348 0.054619 -0.703684
v -1.837348 0.054619 -0.799018
v -1.837348 0.164344 -0.799018
v -1.837348 0.702485 -0.799018
v -1.837348 0.805806 -0.799018
v -1.837348 0.805806 -0.703684
v -1.837348 0.805806 -0.147559
v -1.837348 0.805806 -0.047831
v -2.344239 0.702485 -0.047831
v -2.344239 0.164344 -0.047831
v -2.344239 0.054619 -0.047831
v -2.344239 0.054619 -0.147559
v -2.344239 0.054619 -0.703684
v -2.344239 0.054619 -0.799018
v -2.344239 0.164344 -0.799018
v -2.344239 0.702485 -0.799018
v -2.344239 0.805806 -0.799018
v -2.344239 0.805806 -0.703684
v -2.344239 0.805806 -0.147559
v -2.344239 0.805806 -0.047831
v -1.807273 -0.003931 -0.006856
v -1.675096 -0.003931 -0.006856
v -1.675096 0.113807 -0.006856
v -1.807273 0.113807 -0.006856
v -1.807273 0.113807 -0.839993
v -1.675096 0.113807 -0.839993
v -1.675096 -0.003931 -0.839993
v -1.807273 -0.003931 -0.839993
v -1.675096 -0.003931 -0.117464
v -1.675096 0.113807 -0.117464
v -2.508234 -0.003931 -0.117464
v -2.508234 -0.003931 -0.006856
v -2.508234 0.113807 -0.006856
v -2.508234 0.113807 -0.117464
v -2.508234 -0.003931 -0.734259
v -2.508234 0.113807 -0.734259
v -1.675096 -0.003931 -0.734259
v -1.675096 0.113807 -0.734259
v -2.508234 -0.003931 -0.839993
v -2.508234 0.113807 -0.839993
v -2.508234 0.691246 -0.006856
v -2.508234 0.691246 -0.117464
v -2.508234 0.802112 -0.006856
v -2.508234 0.802112 -0.117464
v -2.508234 0.691246 -0.734259
v -2.508234 0.802112 -0.734259
v -2.508234 0.691246 -0.839993
v -2.508234 0.802112 -0.839993
v -1.807273 0.802112 -0.839993
v -1.675096 0.802112 -0.839993
v -1.675096 0.691246 -0.839993
v -1.807273 0.691246 -0.839993
v -1.675096 0.691246 -0.734259
v -1.675096 0.802112 -0.734259
v -1.675096 0.691246 -0.117464
v -1.675096 0.802112 -0.117464
v -1.675096 0.691246 -0.006856
v -1.675096 0.802112 -0.006856
v -1.807273 0.802112 -0.006856
v -1.807273 0.691246 -0.006856
v -2.369463 -0.003931 -0.006856
v -2.369463 0.113807 -0.006856
v -2.369463 0.113807 -0.839993
v -2.369463 -0.003931 -0.839993
v -2.369463 0.802112 -0.839993
v -2.369463 0.691246 -0.839993
v -2.369463 0.802112 -0.006856
v -2.369463 0.691246 -0.006856
vt 0.375000 0.000000
vt 0.625000 0.000000
vt 0.375000 0.250000
vt 0.625000 0.250000
vt 0.375000 0.500000
vt 0.625000 0.500000
vt 0.375000 0.750000
vt 0.625000 0.750000
vt 0.375000 1.000000
vt 0.625000 1.000000
vt 0.875000 0.000000
vt 0.875000 0.250000
vt 0.125000 0.000000
vt 0.125000 0.250000
vt 0.375000 0.000000
vt 0.625000 0.000000
vt 0.625000 0.250000
vt 0.375000 0.250000
vt 0.625000 0.500000
vt 0.375000 0.500000
vt 0.625000 0.750000
vt 0.375000 0.750000
vt 0.625000 1.000000
vt 0.375000 1.000000
vt 0.875000 0.000000
vt 0.875000 0.250000
vt 0.125000 0.000000
vt 0.125000 0.250000
vt 0.375000 0.000000
vt 0.625000 0.000000
vt 0.625000 0.250000
vt 0.375000 0.250000
vt 0.625000 0.500000
vt 0.375000 0.500000
vt 0.625000 0.750000
vt 0.375000 0.750000
vt 0.625000 1.000000
vt 0.375000 1.000000
vt 0.875000 0.000000
vt 0.875000 0.250000
vt 0.125000 0.000000
vt 0.125000 0.250000
vt 0.585338 0.000000
vt 0.625000 0.000000
vt 0.625000 0.036517
vt 0.585338 0.036517
vt 0.585338 0.250000
vt 0.625000 0.250000
vt 0.625000 0.283190
vt 0.585338 0.283190
vt 0.585338 0.713483
vt 0.625000 0.713483
vt 0.625000 0.750000
vt 0.585338 0.750000
vt 0.585338 0.966810
vt 0.625000 0.966810
vt 0.625000 1.000000
vt 0.585338 1.000000
vt 0.658190 0.000000
vt 0.658190 0.036517
vt 0.341810 0.000000
vt 0.375000 0.000000
vt 0.375000 0.036517
vt 0.341810 0.036517
vt 0.156728 0.000000
vt 0.156728 0.036517
vt 0.585338 0.781728
vt 0.625000 0.781728
vt 0.843272 0.000000
vt 0.843272 0.036517
vt 0.625000 0.468272
vt 0.585338 0.468272
vt 0.125000 0.000000
vt 0.125000 0.036517
vt 0.585338 0.750000
vt 0.625000 0.750000
vt 0.875000 0.000000
vt 0.875000 0.036517
vt 0.625000 0.500000
vt 0.585338 0.500000
vt 0.341810 0.215614
vt 0.375000 0.215614
vt 0.375000 0.250000
vt 0.341810 0.250000
vt 0.156728 0.215614
vt 0.156728 0.250000
vt 0.125000 0.215614
vt 0.125000 0.250000
vt 0.585338 0.500000
vt 0.625000 0.500000
vt 0.625000 0.534386
vt 0.585338 0.534386
vt 0.843272 0.250000
vt 0.843272 0.215614
vt 0.875000 0.215614
vt 0.875000 0.250000
vt 0.658190 0.250000
vt 0.658190 0.215614
vt 0.625000 0.215614
vt 0.625000 0.250000
vt 0.585338 0.250000
vt 0.585338 0.215614
vt 0.156728 0.036517
vt 0.341810 0.036517
vt 0.341810 0.215614
vt 0.156728 0.215614
vt 0.658190 0.215614
vt 0.658190 0.036517
vt 0.843272 0.036517
vt 0.843272 0.215614
vt 0.416641 0.036517
vt 0.585338 0.036517
vt 0.585338 0.215614
vt 0.416641 0.215614
vt 0.416641 0.000000
vt 0.416641 0.036517
vt 0.416641 0.966810
vt 0.416641 1.000000
vt 0.416641 0.781728
vt 0.416641 0.750000
vt 0.416641 0.713483
vt 0.416641 0.750000
vt 0.416641 0.534386
vt 0.585338 0.534386
vt 0.585338 0.713483
vt 0.416641 0.713483
vt 0.416641 0.500000
vt 0.416641 0.534386
vt 0.416641 0.468272
vt 0.416641 0.500000
vt 0.416641 0.283190
vt 0.416641 0.250000
vt 0.416641 0.250000
vt 0.416641 0.215614
vt 0.375000 0.966810
vt 0.375000 1.000000
vt 0.375000 0.781728
vt 0.375000 0.750000
vt 0.375000 0.713483
vt 0.375000 0.750000
vt 0.375000 0.534386
vt 0.375000 0.500000
vt 0.375000 0.468272
vt 0.375000 0.500000
vt 0.375000 0.283190
vt 0.375000 0.250000
vt 0.585338 0.000000
vt 0.625000 0.000000
vt 0.658190 0.000000
vt 0.341810 0.000000
vt 0.375000 0.000000
vt 0.156728 0.000000
vt 0.843272 0.000000
vt 0.125000 0.000000
vt 0.875000 0.000000
vt 0.341810 0.250000
vt 0.156728 0.250000
vt 0.125000 0.250000
vt 0.875000 0.250000
vt 0.843272 0.250000
vt 0.658190 0.250000
vt 0.416641 0.000000
vn 0.999864 -0.015033 -0.006832
vn 0.999864 -0.015033 -0.006832
vn 0.999864 -0.015033 -0.006832
vn 0.999864 -0.015033 -0.006832
vn 0.015506 0.712376 0.701627
vn 0.015506 0.712376 0.701627
vn 0.015506 0.712376 0.701627
vn 0.015506 0.712376 0.701627
vn -0.999864 0.015033 0.006832
vn -0.999864 0.015033 0.006832
vn -0.999864 0.015033 0.006832
vn -0.999864 0.015033 0.006832
vn -0.015506 -0.712376 -0.701627
vn -0.015506 -0.712376 -0.701627
vn -0.015506 -0.712376 -0.701627
vn -0.015506 -0.712376 -0.701627
vn 0.005682 0.701638 -0.712511
vn 0.005682 0.701638 -0.712511
vn 0.005682 0.701638 -0.712511
vn 0.005682 0.701638 -0.712511
vn -0.005682 -0.701637 0.712512
vn -0.005682 -0.701637 0.712512
vn -0.005682 -0.701637 0.712512
vn -0.005682 -0.701637 0.712512
vn 0.000000 0.000000 1.000000
vn 0.000000 0.000000 1.000000
vn 0.000000 0.000000 1.000000
vn 0.000000 0.000000 1.000000
vn -0.703499 0.710696 0.000000
vn -0.703499 0.710696 0.000000
vn -0.703499 0.710696 0.000000
vn -0.703499 0.710696 0.000000
vn 0.000000 0.000000 -1.000000
vn 0.000000 0.000000 -1.000000
vn 0.000000 0.000000 -1.000000
vn 0.000000 0.000000 -1.000000
vn 0.703499 -0.710696 0.000000
vn 0.703499 -0.710696 0.000000
vn 0.703499 -0.710696 0.000000
vn 0.703499 -0.710696 0.000000
vn 0.710696 0.703499 0.000000
vn 0.710696 0.703499 0.000000
vn 0.710696 0.703499 0.000000
vn 0.710696 0.703499 0.000000
vn -0.710696 -0.703499 0.000000
vn -0.710696 -0.703499 0.000000
vn -0.710696 -0.703499 0.000000
vn -0.710696 -0.703499 0.000000
vn 0.000000 0.000000 1.000000
vn 0.000000 0.000000 1.000000
vn 0.000000 0.000000 1.000000
vn 0.000000 0.000000 1.000000
vn -0.703499 0.710696 0.000000
vn -0.703499 0.710696 0.000000
vn -0.703499 0.710696 0.000000
vn -0.703499 0.710696 0.000000
vn 0.000000 0.000000 -1.000000
vn 0.000000 0.000000 -1.000000
vn 0.000000 0.000000 -1.000000
vn 0.000000 0.000000 -1.000000
vn 0.703499 -0.710696 0.000000
vn 0.703499 -0.710696 0.000000
vn 0.703499 -0.710696 0.000000
vn 0.703499 -0.710696 0.000000
vn 0.710696 0.703499 0.000000
vn 0.710696 0.703499 0.000000
vn 0.710696 0.703499 0.000000
vn 0.710696 0.703499 0.000000
vn -0.710696 -0.703499 0.000000
vn -0.710696 -0.703499 0.000000
vn -0.710696 -0.703499 0.000000
vn -0.710696 -0.703499 0.000000
vn -0.000000 0.000000 1.000000
vn 0.000000 0.000000 1.000000
vn 0.000000 0.000000 1.000000
vn -0.000000 0.000000 1.000000
vn 0.000000 1.000000 0.000000
vn 0.000000 1.000000 0.000000
vn 0.000000 1.000000 0.000000
vn 0.000000 1.000000 0.000000
vn 0.000000 0.000000 -1.000000
vn 0.000000 0.000000 -1.000000
vn 0.000000 0.000000 -1.000000
vn 0.000000 0.000000 -1.000000
vn 0.000000 -1.000000 0.000000
vn 0.000000 -1.000000 0.000000
vn 0.000000 -1.000000 0.000000
vn 0.000000 -1.000000 0.000000
vn 1.000000 0.000000 0.000000
vn 1.000000 0.000000 0.000000
vn 1.000000 0.000000 0.000000
vn 1.000000 0.000000 0.000000
vn -1.000000 0.000000 0.000000
vn -1.000000 0.000000 0.000000
vn -1.000000 0.000000 0.000000
vn -1.000000 0.000000 0.000000
vn -1.000000 0.000000 0.000000
vn -1.000000 0.000000 0.000000
vn 0.000000 -1.000000 0.000000
vn 0.000000 -1.000000 0.000000
vn 1.000000 -0.000000 0.000000
vn 1.000000 -0.000000 0.000000
vn 0.000000 1.000000 0.000000
vn 0.000000 1.000000 0.000000
vn -1.000000 0.000000 0.000000
vn -1.000000 0.000000 0.000000
vn 0.000000 -1.000000 0.000000
vn 0.000000 -1.000000 0.000000
vn 1.000000 -0.000000 0.000000
vn 1.000000 0.000000 0.000000
vn 0.000000 1.000000 0.000000
vn 0.000000 1.000000 0.000000
vn -1.000000 0.000000 0.000000
vn -1.000000 0.000000 0.000000
vn -1.000000 0.000000 0.000000
vn -1.000000 0.000000 0.000000
vn -1.000000 0.000000 0.000000
vn -1.000000 0.000000 0.000000
vn -1.000000 0.000000 0.000000
vn -1.000000 0.000000 0.000000
vn 0.000000 0.000000 -1.000000
vn 0.000000 0.000000 -1.000000
vn 0.000000 0.000000 -1.000000
vn 0.000000 0.000000 -1.000000
vn 1.000000 0.000000 0.000000
vn 1.000000 0.000000 0.000000
vn 1.000000 0.000000 0.000000
vn 1.000000 0.000000 0.000000
vn 1.000000 0.000000 0.000000
vn 1.000000 0.000000 0.000000
vn 1.000000 0.000000 0.000000
vn 1.000000 0.000000 0.000000
vn 0.000000 0.000000 1.000000
vn 0.000000 0.000000 1.000000
vn 0.000000 0.000000 1.000000
vn 0.000000 0.000000 1.000000
vn -1.000000 0.000000 0.000000
vn -1.000000 0.000000 0.000000
vn -1.000000 0.000000 0.000000
vn -1.000000 0.000000 0.000000
vn 1.000000 -0.000000 0.000000
vn 1.000000 -0.000000 0.000000
vn 1.000000 -0.000000 0.000000
vn 1.000000 -0.000000 0.000000
vn 0.000000 0.000000 1.000000
vn 0.000000 0.000000 1.000000
vn 0.000000 0.000000 1.000000
vn 0.000000 0.000000 1.000000
vn -0.000000 0.000000 1.000000
vn -0.000000 0.000000 1.000000
vn 0.000000 -1.000000 0.000000
vn 0.000000 -1.000000 0.000000
vn 0.000000 -1.000000 0.000000
vn 0.000000 -1.000000 0.000000
vn 0.000000 0.000000 -1.000000
vn 0.000000 0.000000 -1.000000
vn 0.000000 0.000000 -1.000000
vn 0.000000 0.000000 -1.000000
vn 0.000000 0.000000 -1.000000
vn 0.000000 0.000000 -1.000000
vn 0.000000 0.000000 -1.000000
vn 0.000000 0.000000 -1.000000
vn 0.000000 1.000000 0.000000
vn 0.000000 1.000000 0.000000
vn 0.000000 1.000000 0.000000
vn 0.000000 1.000000 0.000000
vn 0.000000 0.000000 1.000000
vn 0.000000 0.000000 1.000000
vn 0.000000 0.000000 1.000000
vn 0.000000 0.000000 1.000000
vn 0.000000 0.000000 1.000000
vn 0.000000 -1.000000 0.000000
vn 0.000000 -1.000000 0.000000
vn 0.000000 -1.000000 0.000000
vn 0.000000 -1.000000 0.000000
vn 0.000000 0.000000 -1.000000
vn 0.000000 0.000000 -1.000000
vn 0.000000 0.000000 -1.000000
vn 0.000000 0.000000 -1.000000
vn 0.000000 1.000000 0.000000
vn 0.000000 1.000000 0.000000
vn 0.000000 1.000000 0.000000
vn 0.000000 1.000000 0.000000
vn 0.000000 0.000000 1.000000
vn 0.000000 -0.573370 -0.819296
vn 0.000000 -0.573370 -0.819296
vn 0.000000 -0.573370 -0.819296
vn 0.000000 -0.573370 -0.819296
vn 0.000000 -0.573371 0.819296
vn 0.000000 -0.573371 0.819296
vn 0.000000 -0.573371 0.819295
vn 0.000000 -0.573371 0.819296
vn -0.805488 -0.592612 0.000000
vn -0.805488 -0.592612 0.000000
vn -0.805488 -0.592612 0.000000
vn -0.805488 -0.592612 0.000000
vn 0.833093 -0.553133 0.000000
vn 0.833093 -0.553133 0.000000
vn 0.833093 -0.553133 0.000000
vn 0.833093 -0.553133 0.000000
vn 0.833093 -0.553133 0.000000
vn 0.833093 -0.553133 0.000000
vn 0.833093 -0.553133 0.000000
vn 0.833093 -0.553133 0.000000
vn -0.792627 0.609706 0.000000
vn -0.792627 0.609706 0.000000
vn -0.792627 0.609706 0.000000
vn -0.792627 0.609706 0.000000
vn -0.805488 -0.592612 0.000000
vn -0.805488 -0.592612 0.000000
vn -0.805488 -0.592612 0.000000
vn -0.805488 -0.592612 0.000000
vn 0.761050 0.648694 0.000000
vn 0.761050 0.648694 0.000000
vn 0.761050 0.648694 0.000000
vn 0.761050 0.648694 0.000000
vn 0.833093 -0.553133 0.000000
vn 0.833093 -0.553133 0.000000
vn 0.833093 -0.553133 0.000000
vn 0.833093 -0.553133 0.000000
vn -0.805489 -0.592611 0.000000
vn -0.805489 -0.592611 0.000000
vn -0.805488 -0.592611 0.000000
vn -0.805488 -0.592611 0.000000
vn -0.094591 0.995516 0.000000
vn -0.094591 0.995516 0.000000
vn -0.094591 0.995516 0.000000
vn -0.094591 0.995516 0.000000
vn 0.277735 -0.960658 0.000000
vn 0.277735 -0.960658 0.000000
vn 0.277734 -0.960658 0.000000
vn 0.277735 -0.960658 0.000000
vn -0.094591 0.995516 0.000000
vn -0.094591 0.995516 0.000000
vn -0.094591 0.995516 0.000000
vn -0.094591 0.995516 0.000000
vn -0.094591 0.995516 0.000000
vn -0.094591 0.995516 0.000000
vn -0.094591 0.995516 0.000000
vn -0.094591 0.995516 0.000000
vn 0.000000 0.995962 -0.089781
vn 0.000000 0.995962 -0.089781
vn 0.000000 0.995962 -0.089781
vn 0.000000 0.995962 -0.089781
vn 0.085435 0.996344 0.000000
vn 0.085435 0.996344 0.000000
vn 0.085435 0.996344 0.000000
vn 0.085435 0.996344 0.000000
vn -0.252456 -0.967608 0.000000
vn -0.252456 -0.967608 0.000000
vn -0.252456 -0.967608 0.000000
vn -0.252456 -0.967608 0.000000
vn 0.085435 0.996344 0.000000
vn 0.085435 0.996344 0.000000
vn 0.085435 0.996344 0.000000
vn 0.085435 0.996344 0.000000
vn 0.085435 0.996344 0.000000
vn 0.085435 0.996344 0.000000
vn 0.085435 0.996344 0.000000
vn 0.085435 0.996344 0.000000
vn 0.000000 0.995962 0.089778
vn 0.000000 0.995962 0.089778
vn 0.000000 0.995962 0.089778
vn 0.000000 0.995962 0.089778
vn -0.612163 0.000000 -0.790732
vn -0.612163 0.000000 -0.790732
vn -0.612163 0.000000 -0.790732
vn -0.612163 0.000000 -0.790732
vn -0.618206 0.000000 0.786016
vn -0.618206 0.000000 0.786016
vn -0.618206 0.000000 0.786016
vn -0.618206 0.000000 0.786016
vn -0.806158 0.000000 -0.591700
vn -0.806158 0.000000 -0.591700
vn -0.806158 0.000000 -0.591700
vn -0.806158 0.000000 -0.591700
vn 0.578804 0.000000 0.815466
vn 0.578804 0.000000 0.815466
vn 0.578804 0.000000 0.815466
vn 0.578804 0.000000 0.815466
vn 0.572722 0.000000 -0.819750
vn 0.572722 0.000000 -0.819750
vn 0.572722 0.000000 -0.819750
vn 0.572722 0.000000 -0.819750
vn -0.806158 0.000000 0.591700
vn -0.806158 0.000000 0.591700
vn -0.806158 0.000000 0.591700
vn -0.806158 0.000000 0.591700
vn 0.000000 -0.573372 -0.819295
vn 0.000000 -0.573372 -0.819295
vn 0.000000 -0.573372 -0.819295
vn 0.000000 -0.573372 -0.819295
vn 0.000000 0.629793 0.776763
vn 0.000000 0.629793 0.776763
vn 0.000000 0.629793 0.776763
vn 0.000000 0.629793 0.776763
vn 0.000000 0.629795 -0.776762
vn 0.000000 0.629795 -0.776762
vn 0.000000 0.629795 -0.776762
vn 0.000000 0.629795 -0.776762
vn 0.000000 -0.573372 0.819295
vn 0.000000 -0.573372 0.819295
vn 0.000000 -0.573372 0.819295
vn 0.000000 -0.573372 0.819295
vn 0.000000 0.995962 -0.089778
vn 0.000000 0.995962 -0.089778
vn 0.000000 0.995962 -0.089778
vn 0.000000 0.995962 -0.089778
vn 0.000000 -0.964382 0.264514
vn 0.000000 -0.964382 0.264514
vn 0.000000 -0.964382 0.264514
vn 0.000000 -0.964382 0.264514
vn 0.000000 -0.964382 -0.264513
vn 0.000000 -0.964382 -0.264513
vn 0.000000 -0.964382 -0.264513
vn 0.000000 -0.964382 -0.264513
vn 0.000000 0.995962 0.089774
vn 0.000000 0.995962 0.089774
vn 0.000000 0.995962 0.089774
vn 0.000000 0.995962 0.089774
vn 0.851577 0.000000 0.524230
vn 0.851577 0.000000 0.524230
vn 0.851577 0.000000 0.524230
vn 0.851577 0.000000 0.524230
vn 0.000000 -0.573371 -0.819296
vn 0.000000 -0.573371 -0.819296
vn 0.000000 -0.573371 -0.819296
vn 0.000000 -0.573371 -0.819296
vn 0.000000 -0.573371 0.819296
vn 0.000000 -0.573371 0.819296
vn 0.000000 -0.573371 0.819296
vn 0.000000 -0.573371 0.819296
vn 0.851577 0.000000 -0.524230
vn 0.851577 0.000000 -0.524230
vn 0.851577 0.000000 -0.524230
vn 0.851577 0.000000 -0.524230
vn 0.000000 0.995962 -0.089777
vn 0.000000 0.995962 -0.089777
vn 0.000000 0.995962 -0.089777
vn 0.000000 0.995962 -0.089777
vn 0.000000 0.995962 0.089780
vn 0.000000 0.995962 0.089780
vn 0.000000 0.995962 0.089780
vn 0.000000 0.995962 0.089780
s off
g pCube39
usemtl aiStandardSurface28SG
f 1/1/1 2/2/2 4/4/3 3/3/4
f 3/3/5 4/4/6 6/6/7 5/5/8
f 5/5/9 6/6/10 8/8/11 7/7/12
f 7/7/13 8/8/14 2/10/15 1/9/16
f 2/2/17 8/11/18 6/12/19 4/4/20
f 7/13/21 1/1/22 3/3/23 5/14/24
f 9/15/25 10/16/26 12/17/27 11/18/28
f 11/18/29 12/17/30 14/19/31 13/20/32
f 13/20/33 14/19/34 16/21/35 15/22/36
f 15/22/37 16/21/38 10/23/39 9/24/40
f 10/16/41 16/25/42 14/26/43 12/17/44
f 15/27/45 9/15/46 11/18/47 13/28/48
f 17/29/49 18/30/50 20/31/51 19/32/52
f 19/32/53 20/31/54 22/33/55 21/34/56
f 21/34/57 22/33/58 24/35/59 23/36/60
f 23/36/61 24/35/62 18/37/63 17/38/64
f 18/30/65 24/39/66 22/40/67 20/31/68
f 23/41/69 17/29/70 19/32/71 21/42/72
s 1
f 73/43/73 74/44/74 75/45/75 76/46/76
s 2
f 60/47/77 28/48/78 36/49/79 59/50/80
s 3
f 77/51/81 78/52/82 79/53/83 80/54/84
s 4
f 52/55/85 35/56/86 26/57/87 51/58/88
s 5
f 74/44/89 81/59/90 82/60/91 75/45/92
s 6
f 83/61/93 84/62/94 85/63/95 86/64/96
f 87/65/97 83/61/93 86/64/96 88/66/98
s 4
f 53/67/99 39/68/100 35/56/86 52/55/85
s 5
f 82/60/91 81/59/90 89/69/101 90/70/102
s 2
f 59/50/80 36/49/79 40/71/103 58/72/104
s 6
f 91/73/105 87/65/97 88/66/98 92/74/106
s 4
f 54/75/107 32/76/108 39/68/100 53/67/99
s 5
f 90/70/102 89/69/101 79/77/109 78/78/110
s 2
f 58/72/104 40/71/103 30/79/111 57/80/112
s 6
f 94/81/113 93/82/114 95/83/115 96/84/116
f 97/85/117 94/81/113 96/84/116 98/86/118
f 99/87/119 97/85/117 98/86/118 100/88/120
s 3
f 101/89/121 102/90/122 103/91/123 104/92/124
s 5
f 106/93/125 105/94/126 103/95/127 102/96/128
f 108/97/129 107/98/130 105/94/126 106/93/125
f 109/99/131 107/98/130 108/97/129 110/100/132
s 1
f 111/101/133 112/102/134 109/99/135 110/100/136
s 6
f 86/64/96 85/63/95 93/82/114 94/81/113
s off
usemtl aiStandardSurface29SG
f 46/103/137 45/104/138 41/105/139 42/106/140
s 6
usemtl aiStandardSurface28SG
f 92/74/106 88/66/98 97/85/117 99/87/119
s 3
f 104/92/124 103/91/123 78/52/82 77/51/81
s 5
f 105/94/126 90/70/102 78/78/110 103/95/127
s off
f 44/107/141 48/108/142 47/109/143 43/110/144
s 5
f 75/45/92 82/60/91 107/98/130 109/99/131
s 1
f 76/46/76 75/45/75 109/99/135 112/102/134
s off
f 62/111/145 50/112/146 49/113/147 61/114/148
s 1
f 113/115/149 73/43/73 76/46/76 114/116/150
s 4
f 64/117/151 52/55/85 51/58/88 63/118/152
f 65/119/153 53/67/99 52/55/85 64/117/151
f 66/120/154 54/75/107 53/67/99 65/119/153
s 3
f 115/121/155 77/51/81 80/54/84 116/122/156
s off
f 68/123/157 56/124/158 55/125/159 67/126/160
s 3
f 117/127/161 101/89/121 104/92/124 118/128/162
s 2
f 70/129/163 58/72/104 57/80/112 69/130/164
f 71/131/165 59/50/80 58/72/104 70/129/163
f 72/132/166 60/47/77 59/50/80 71/131/165
s 1
f 119/133/167 120/134/168 112/102/134 111/101/133
f 85/63/169 114/116/150 120/134/168 93/82/170
f 84/62/171 113/115/149 114/116/150 85/63/169
s 4
f 34/135/172 64/117/151 63/118/152 25/136/173
f 38/137/174 65/119/153 64/117/151 34/135/172
f 31/138/175 66/120/154 65/119/153 38/137/174
s 3
f 92/139/176 115/121/155 116/122/156 91/140/177
f 99/141/178 118/128/162 115/121/155 92/139/176
f 100/142/179 117/127/161 118/128/162 99/141/178
s 2
f 37/143/180 70/129/163 69/130/164 29/144/181
f 33/145/182 71/131/165 70/129/163 37/143/180
f 27/146/183 72/132/166 71/131/165 33/145/182
s 1
f 93/82/170 120/134/168 119/133/167 95/83/184
s off
f 51/147/185 26/148/186 74/44/187 73/43/188
f 32/76/189 54/75/190 80/54/191 79/53/192
f 26/148/193 35/149/194 81/59/195 74/44/196
f 34/150/197 25/151/198 84/62/199 83/61/200
f 38/152/201 34/150/202 83/61/203 87/65/204
f 45/104/205 46/103/206 88/66/207 86/64/208
f 35/149/209 39/153/210 89/69/211 81/59/212
f 47/109/213 48/108/214 82/60/215 90/70/216
f 31/154/217 38/152/218 87/65/219 91/73/220
f 39/153/221 32/155/222 79/77/223 89/69/224
f 27/146/225 33/156/226 96/84/227 95/83/228
f 42/106/229 41/105/230 94/81/231 97/85/232
f 33/156/233 37/157/234 98/86/235 96/84/236
f 37/157/237 29/158/238 100/88/239 98/86/240
f 57/80/241 30/79/242 102/90/243 101/89/244
f 30/159/245 40/160/246 106/93/247 102/96/248
f 44/107/249 43/110/250 105/94/251 107/98/252
f 40/160/253 36/161/254 108/97/255 106/93/256
f 36/161/257 28/48/258 110/100/259 108/97/260
f 28/48/261 60/47/262 111/101/263 110/100/264
f 41/105/265 45/104/266 86/64/267 94/81/268
f 46/103/269 42/106/270 97/85/271 88/66/272
f 55/125/273 56/124/274 104/92/275 77/51/276
f 43/110/277 47/109/278 90/70/279 105/94/280
f 48/108/281 44/107/282 107/98/283 82/60/284
f 49/113/285 50/112/286 76/46/287 112/102/288
f 63/162/289 51/147/290 73/43/291 113/115/292
f 50/112/293 62/111/294 114/116/295 76/46/296
f 67/126/297 55/125/298 77/51/299 115/121/300
f 54/75/301 66/120/302 116/122/303 80/54/304
f 69/130/305 57/80/306 101/89/307 117/127/308
f 56/124/309 68/123/310 118/128/311 104/92/312
f 61/114/313 49/113/314 112/102/315 120/134/316
f 60/47/317 72/132/318 119/133/319 111/101/320
f 62/111/321 61/114/322 120/134/323 114/116/324
f 25/151/325 63/162/326 113/115/327 84/62/328
f 66/120/329 31/138/330 91/140/331 116/122/332
f 68/123/333 67/126/334 115/121/335 118/128/336
f 29/144/337 69/130/338 117/127/339 100/142/340
f 72/132/341 27/146/342 95/83/343 119/133/344
