# This file uses centimeters as units for non-parametric coordinates.

mtllib Casket.mtl
g default
v -6.444319 0.493373 0.298477
v -6.425814 0.041361 0.298477
v -6.557345 0.488746 -0.509353
v -6.538840 0.036734 -0.509353
v -7.072976 0.467636 -0.528698
v -7.054471 0.015624 -0.528698
v -7.246110 0.460548 0.268397
v -7.227605 0.008536 0.268397
v -7.177322 0.463364 1.884289
v -7.158817 0.011352 1.884289
v -6.615278 0.033605 1.904680
v -6.633783 0.485617 1.904680
v -7.249855 0.552036 0.268397
v -6.448065 0.584861 0.298477
v -6.561090 0.580234 -0.509353
v -7.076721 0.559124 -0.528698
v -7.181068 0.554852 1.884289
v -6.637528 0.577105 1.904680
v -6.415805 0.612346 0.077995
v -6.415991 0.559193 0.080509
v -6.477165 0.603303 -0.117740
v -6.477352 0.550150 -0.115226
v -7.328491 0.628931 0.147956
v -7.328677 0.575778 0.150470
v -7.267130 0.637974 0.343691
v -7.267316 0.584821 0.346206
v -6.502464 0.613016 1.033904
v -6.500584 0.559840 1.034529
v -6.417410 0.613827 0.847024
v -6.415530 0.560651 0.847649
v -7.289018 0.588418 0.450221
v -7.287138 0.535243 0.450846
v -7.374073 0.587607 0.637102
v -7.372192 0.534432 0.637727
v -6.533932 0.630786 1.462976
v -6.531213 0.564379 1.462976
v -6.526833 0.631077 1.273431
v -6.524114 0.564670 1.273431
v -7.248785 0.614105 1.246366
v -7.246066 0.547697 1.246366
v -7.255884 0.613814 1.435911
v -7.253165 0.547407 1.435911
vt 0.375000 0.000000
vt 0.625000 0.000000
vt 0.375000 0.250000
vt 0.625000 0.250000
vt 0.375000 0.500000
vt 0.625000 0.500000
vt 0.375000 0.750000
vt 0.625000 0.750000
vt 0.375000 1.000000
vt 0.625000 1.000000
vt 0.875000 0.000000
vt 0.875000 0.250000
vt 0.125000 0.000000
vt 0.125000 0.250000
vt 0.375000 0.750000
vt 0.625000 0.750000
vt 0.625000 1.000000
vt 0.375000 1.000000
vt 0.375000 0.000000
vt 0.375000 0.250000
vt 0.125000 0.250000
vt 0.125000 0.000000
vt 0.375000 0.750000
vt 0.375000 0.750000
vt 0.375000 1.000000
vt 0.375000 1.000000
vt 0.375000 0.000000
vt 0.625000 0.000000
vt 0.625000 0.250000
vt 0.375000 0.250000
vt 0.625000 0.500000
vt 0.375000 0.500000
vt 0.625000 0.750000
vt 0.375000 0.750000
vt 0.625000 1.000000
vt 0.375000 1.000000
vt 0.875000 0.000000
vt 0.875000 0.250000
vt 0.125000 0.000000
vt 0.125000 0.250000
vt 0.375000 0.000000
vt 0.625000 0.000000
vt 0.625000 0.250000
vt 0.375000 0.250000
vt 0.625000 0.500000
vt 0.375000 0.500000
vt 0.625000 0.750000
vt 0.375000 0.750000
vt 0.625000 1.000000
vt 0.375000 1.000000
vt 0.875000 0.000000
vt 0.875000 0.250000
vt 0.125000 0.000000
vt 0.125000 0.250000
vt 0.375000 0.000000
vt 0.625000 0.000000
vt 0.625000 0.250000
vt 0.375000 0.250000
vt 0.625000 0.500000
vt 0.375000 0.500000
vt 0.625000 0.750000
vt 0.375000 0.750000
vt 0.625000 1.000000
vt 0.375000 1.000000
vt 0.875000 0.000000
vt 0.875000 0.250000
vt 0.125000 0.000000
vt 0.125000 0.250000
vn 0.989509 0.040510 -0.138677
vn 0.989509 0.040510 -0.138677
vn 0.989509 0.040510 -0.138677
vn 0.989509 0.040510 -0.138677
vn 0.037426 0.001532 -0.999298
vn 0.037426 0.001532 -0.999298
vn 0.037426 0.001532 -0.999298
vn 0.037426 0.001532 -0.999298
vn -0.976359 -0.039972 -0.212427
vn -0.976359 -0.039972 -0.212427
vn -0.976359 -0.039972 -0.212427
vn -0.976359 -0.039972 -0.212427
vn -0.037426 -0.001532 0.999298
vn -0.037426 -0.001532 0.999298
vn -0.037426 -0.001532 0.999298
vn -0.037426 -0.001532 0.999298
vn 0.040905 -0.999163 -0.000000
vn 0.040905 -0.999163 -0.000000
vn 0.040905 -0.999163 -0.000000
vn 0.040905 -0.999163 -0.000000
vn -0.040905 0.999163 -0.000000
vn -0.040905 0.999163 -0.000000
vn -0.040905 0.999163 -0.000000
vn -0.040905 0.999163 -0.000000
vn -0.998257 -0.040868 0.042567
vn -0.998257 -0.040868 0.042567
vn -0.998257 -0.040868 0.042567
vn -0.998257 -0.040868 0.042567
vn 0.040905 -0.999163 -0.000000
vn 0.040905 -0.999163 -0.000000
vn 0.040905 -0.999163 -0.000000
vn 0.040905 -0.999163 -0.000000
vn 0.992272 0.040623 0.117242
vn 0.992272 0.040623 0.117242
vn 0.992272 0.040623 0.117242
vn 0.992272 0.040623 0.117242
vn -0.040905 0.999163 0.000000
vn -0.040905 0.999163 0.000000
vn -0.040905 0.999163 0.000000
vn -0.040905 0.999163 0.000000
vn 0.989509 0.040510 -0.138676
vn 0.989509 0.040510 -0.138676
vn 0.989509 0.040510 -0.138676
vn 0.989509 0.040510 -0.138676
vn 0.037426 0.001532 -0.999298
vn 0.037426 0.001532 -0.999298
vn 0.037426 0.001532 -0.999298
vn 0.037426 0.001532 -0.999298
vn -0.976359 -0.039972 -0.212427
vn -0.976359 -0.039972 -0.212427
vn -0.976359 -0.039972 -0.212427
vn -0.976359 -0.039972 -0.212427
vn -0.998257 -0.040868 0.042567
vn -0.998257 -0.040868 0.042567
vn -0.998257 -0.040868 0.042567
vn -0.998257 -0.040868 0.042567
vn -0.037426 -0.001532 0.999298
vn -0.037426 -0.001532 0.999298
vn -0.037426 -0.001532 0.999298
vn -0.037426 -0.001532 0.999298
vn 0.992272 0.040623 0.117242
vn 0.992272 0.040623 0.117242
vn 0.992272 0.040623 0.117242
vn 0.992272 0.040623 0.117242
vn 0.954295 -0.017455 -0.298355
vn 0.954295 -0.017455 -0.298355
vn 0.954295 -0.017455 -0.298355
vn 0.954295 -0.017455 -0.298355
vn -0.298844 -0.044043 -0.953285
vn -0.298844 -0.044043 -0.953285
vn -0.298844 -0.044043 -0.953285
vn -0.298844 -0.044043 -0.953285
vn -0.954295 0.017456 0.298355
vn -0.954295 0.017456 0.298355
vn -0.954295 0.017456 0.298355
vn -0.954295 0.017456 0.298355
vn 0.298844 0.044050 0.953285
vn 0.298844 0.044050 0.953285
vn 0.298844 0.044050 0.953285
vn 0.298844 0.044050 0.953285
vn -0.014266 -0.998617 0.050611
vn -0.014266 -0.998617 0.050611
vn -0.014266 -0.998617 0.050611
vn -0.014266 -0.998617 0.050611
vn 0.014266 0.998617 -0.050611
vn 0.014266 0.998617 -0.050611
vn 0.014266 0.998617 -0.050611
vn 0.014266 0.998617 -0.050611
vn 0.909482 0.037024 0.414091
vn 0.909482 0.037024 0.414091
vn 0.909482 0.037024 0.414091
vn 0.909482 0.037024 0.414091
vn 0.414238 0.003950 -0.910160
vn 0.414238 0.003950 -0.910160
vn 0.414238 0.003950 -0.910160
vn 0.414238 0.003950 -0.910160
vn -0.909482 -0.037025 -0.414091
vn -0.909482 -0.037025 -0.414091
vn -0.909482 -0.037025 -0.414091
vn -0.909482 -0.037025 -0.414091
vn -0.414238 -0.003950 0.910160
vn -0.414238 -0.003950 0.910160
vn -0.414238 -0.003950 0.910160
vn -0.414238 -0.003950 0.910160
vn 0.025775 -0.999640 0.007393
vn 0.025775 -0.999640 0.007393
vn 0.025775 -0.999640 0.007393
vn 0.025775 -0.999640 0.007393
vn -0.025775 0.999640 -0.007393
vn -0.025775 0.999640 -0.007393
vn -0.025775 0.999640 -0.007393
vn -0.025775 0.999640 -0.007393
vn 0.998462 0.040877 0.037458
vn 0.998462 0.040877 0.037458
vn 0.998462 0.040877 0.037458
vn 0.998462 0.040877 0.037458
vn 0.037427 0.001532 -0.999298
vn 0.037427 0.001532 -0.999298
vn 0.037427 0.001532 -0.999298
vn 0.037427 0.001532 -0.999298
vn -0.998462 -0.040877 -0.037458
vn -0.998462 -0.040877 -0.037458
vn -0.998462 -0.040877 -0.037458
vn -0.998462 -0.040877 -0.037458
vn -0.037427 -0.001532 0.999298
vn -0.037427 -0.001532 0.999298
vn -0.037427 -0.001532 0.999298
vn -0.037427 -0.001532 0.999298
vn 0.023527 -0.999723 -0.000652
vn 0.023527 -0.999723 -0.000652
vn 0.023527 -0.999723 -0.000652
vn 0.023527 -0.999723 -0.000652
vn -0.023527 0.999723 0.000652
vn -0.023527 0.999723 0.000652
vn -0.023527 0.999723 0.000652
vn -0.023527 0.999723 0.000652
s off
g Casket
usemtl initialShadingGroup
f 1/1/1 2/2/2 4/4/3 3/3/4
f 3/3/5 4/4/6 6/6/7 5/5/8
f 5/5/9 6/6/10 8/8/11 7/7/12
f 9/15/13 10/16/14 11/17/15 12/18/16
f 2/2/17 8/11/18 6/12/19 4/4/20
f 13/22/21 14/19/22 15/20/23 16/21/24
f 7/7/25 8/8/26 10/16/27 9/15/28
f 8/8/29 2/10/30 11/17/31 10/16/32
f 2/10/33 1/9/34 12/18/35 11/17/36
f 14/26/37 13/23/38 17/24/39 18/25/40
f 1/1/41 3/3/42 15/20/43 14/19/44
f 3/3/45 5/14/46 16/21/47 15/20/48
f 5/14/49 7/13/50 13/22/51 16/21/52
f 7/7/53 9/15/54 17/24/55 13/23/56
f 9/15/57 12/18/58 18/25/59 17/24/60
f 12/18/61 1/9/62 14/26/63 18/25/64
f 19/27/65 20/28/66 22/29/67 21/30/68
f 21/30/69 22/29/70 24/31/71 23/32/72
f 23/32/73 24/31/74 26/33/75 25/34/76
f 25/34/77 26/33/78 20/35/79 19/36/80
f 20/28/81 26/37/82 24/38/83 22/29/84
f 25/39/85 19/27/86 21/30/87 23/40/88
f 27/41/89 28/42/90 30/43/91 29/44/92
f 29/44/93 30/43/94 32/45/95 31/46/96
f 31/46/97 32/45/98 34/47/99 33/48/100
f 33/48/101 34/47/102 28/49/103 27/50/104
f 28/42/105 34/51/106 32/52/107 30/43/108
f 33/53/109 27/41/110 29/44/111 31/54/112
f 35/55/113 36/56/114 38/57/115 37/58/116
f 37/58/117 38/57/118 40/59/119 39/60/120
f 39/60/121 40/59/122 42/61/123 41/62/124
f 41/62/125 42/61/126 36/63/127 35/64/128
f 36/56/129 42/65/130 40/66/131 38/57/132
f 41/67/133 35/55/134 37/58/135 39/68/136
