# This file uses centimeters as units for non-parametric coordinates.

mtllib Fence.mtl
g default
v 2.742062 -0.006726 -4.106925
v 2.744402 -0.006726 -4.166431
v 2.742062 1.110161 -4.106925
v 2.744402 1.110161 -4.166431
v 2.456957 1.110161 -4.118137
v 2.459297 1.110161 -4.177643
v 2.456957 -0.006726 -4.118137
v 2.459297 -0.006726 -4.177643
v 2.609952 1.337764 -4.112120
v 2.612292 1.337764 -4.171627
v 2.591408 1.337764 -4.172448
v 2.589067 1.337764 -4.112942
v 1.273036 -0.006726 -4.164696
v 1.275376 -0.006726 -4.224203
v 1.273036 1.110161 -4.164696
v 1.275376 1.110161 -4.224203
v 0.987931 1.110161 -4.175909
v 0.990272 1.110161 -4.235415
v 0.987931 -0.006726 -4.175909
v 0.990272 -0.006726 -4.235415
v 1.140926 1.337764 -4.169892
v 1.143266 1.337764 -4.229398
v 1.122382 1.337764 -4.230220
v 1.120042 1.337764 -4.170713
v 1.642893 -0.006726 -4.150151
v 1.645233 -0.006726 -4.209658
v 1.642893 1.110161 -4.150151
v 1.645233 1.110161 -4.209658
v 1.357788 1.110161 -4.161363
v 1.360129 1.110161 -4.220870
v 1.357788 -0.006726 -4.161363
v 1.360129 -0.006726 -4.220870
v 1.510783 1.337764 -4.155347
v 1.513123 1.337764 -4.214853
v 1.492239 1.337764 -4.215674
v 1.489899 1.337764 -4.156168
v 2.018674 -0.006726 -4.135373
v 2.021014 -0.006726 -4.194879
v 2.018674 1.110161 -4.135373
v 2.021014 1.110161 -4.194879
v 1.733569 1.110161 -4.146585
v 1.735909 1.110161 -4.206092
v 1.733569 -0.006726 -4.146585
v 1.735909 -0.006726 -4.206092
v 1.886564 1.337764 -4.140569
v 1.888904 1.337764 -4.200075
v 1.868020 1.337764 -4.200896
v 1.865679 1.337764 -4.141390
v 2.752585 0.165483 -4.153848
v 2.755471 0.165483 -4.227230
v 2.752585 0.330203 -4.153848
v 2.755471 0.330203 -4.227230
v 0.995254 0.330203 -4.222957
v 0.998140 0.330203 -4.296340
v 0.995254 0.165483 -4.222957
v 0.998140 0.165483 -4.296340
v 2.388110 -0.006726 -4.120845
v 2.390450 -0.006726 -4.180351
v 2.388110 1.110161 -4.120845
v 2.390450 1.110161 -4.180351
v 2.103005 1.110161 -4.132057
v 2.105345 1.110161 -4.191563
v 2.103005 -0.006726 -4.132057
v 2.105345 -0.006726 -4.191563
v 2.256000 1.337764 -4.126040
v 2.258340 1.337764 -4.185546
v 2.237455 1.337764 -4.186368
v 2.235115 1.337764 -4.126861
v 2.752585 0.739628 -4.153848
v 2.755471 0.739628 -4.227230
v 2.752585 0.899756 -4.153848
v 2.755471 0.899756 -4.227230
v 0.995254 0.899756 -4.222957
v 0.998140 0.899756 -4.296340
v 0.995254 0.739628 -4.222957
v 0.998140 0.739628 -4.296340
vt 0.375000 0.000000
vt 0.625000 0.000000
vt 0.375000 0.250000
vt 0.625000 0.250000
vt 0.375000 0.500000
vt 0.625000 0.500000
vt 0.375000 0.750000
vt 0.625000 0.750000
vt 0.375000 1.000000
vt 0.625000 1.000000
vt 0.875000 0.000000
vt 0.875000 0.250000
vt 0.125000 0.000000
vt 0.125000 0.250000
vt 0.375000 0.250000
vt 0.625000 0.250000
vt 0.625000 0.500000
vt 0.375000 0.500000
vt 0.375000 0.000000
vt 0.625000 0.000000
vt 0.625000 0.250000
vt 0.375000 0.250000
vt 0.375000 0.250000
vt 0.625000 0.250000
vt 0.625000 0.500000
vt 0.375000 0.500000
vt 0.375000 0.500000
vt 0.625000 0.500000
vt 0.625000 0.750000
vt 0.375000 0.750000
vt 0.625000 1.000000
vt 0.375000 1.000000
vt 0.875000 0.000000
vt 0.875000 0.250000
vt 0.125000 0.000000
vt 0.125000 0.250000
vt 0.375000 0.000000
vt 0.625000 0.000000
vt 0.625000 0.250000
vt 0.375000 0.250000
vt 0.375000 0.250000
vt 0.625000 0.250000
vt 0.625000 0.500000
vt 0.375000 0.500000
vt 0.375000 0.500000
vt 0.625000 0.500000
vt 0.625000 0.750000
vt 0.375000 0.750000
vt 0.625000 1.000000
vt 0.375000 1.000000
vt 0.875000 0.000000
vt 0.875000 0.250000
vt 0.125000 0.000000
vt 0.125000 0.250000
vt 0.375000 0.000000
vt 0.625000 0.000000
vt 0.625000 0.250000
vt 0.375000 0.250000
vt 0.375000 0.250000
vt 0.625000 0.250000
vt 0.625000 0.500000
vt 0.375000 0.500000
vt 0.375000 0.500000
vt 0.625000 0.500000
vt 0.625000 0.750000
vt 0.375000 0.750000
vt 0.625000 1.000000
vt 0.375000 1.000000
vt 0.875000 0.000000
vt 0.875000 0.250000
vt 0.125000 0.000000
vt 0.125000 0.250000
vt 0.375000 0.000000
vt 0.625000 0.000000
vt 0.625000 0.250000
vt 0.375000 0.250000
vt 0.625000 0.500000
vt 0.375000 0.500000
vt 0.625000 0.750000
vt 0.375000 0.750000
vt 0.625000 1.000000
vt 0.375000 1.000000
vt 0.875000 0.000000
vt 0.875000 0.250000
vt 0.125000 0.000000
vt 0.125000 0.250000
vt 0.375000 0.000000
vt 0.625000 0.000000
vt 0.625000 0.250000
vt 0.375000 0.250000
vt 0.375000 0.250000
vt 0.625000 0.250000
vt 0.625000 0.500000
vt 0.375000 0.500000
vt 0.375000 0.500000
vt 0.625000 0.500000
vt 0.625000 0.750000
vt 0.375000 0.750000
vt 0.625000 1.000000
vt 0.375000 1.000000
vt 0.875000 0.000000
vt 0.875000 0.250000
vt 0.125000 0.000000
vt 0.125000 0.250000
vt 0.375000 0.000000
vt 0.625000 0.000000
vt 0.625000 0.250000
vt 0.375000 0.250000
vt 0.625000 0.500000
vt 0.375000 0.500000
vt 0.625000 0.750000
vt 0.375000 0.750000
vt 0.625000 1.000000
vt 0.375000 1.000000
vt 0.875000 0.000000
vt 0.875000 0.250000
vt 0.125000 0.000000
vt 0.125000 0.250000
vn 0.999228 0.000000 0.039296
vn 0.999228 0.000000 0.039296
vn 0.999228 0.000000 0.039296
vn 0.999228 0.000000 0.039296
vn 0.000000 1.000000 0.000000
vn 0.000000 1.000000 0.000000
vn 0.000000 1.000000 0.000000
vn 0.000000 1.000000 0.000000
vn -0.999228 0.000000 -0.039296
vn -0.999228 0.000000 -0.039296
vn -0.999228 0.000000 -0.039296
vn -0.999228 0.000000 -0.039296
vn 0.000000 -1.000000 0.000000
vn 0.000000 -1.000000 0.000000
vn 0.000000 -1.000000 0.000000
vn 0.000000 -1.000000 0.000000
vn 0.039296 0.000000 -0.999228
vn 0.039296 0.000000 -0.999228
vn 0.039296 0.000000 -0.999228
vn 0.039296 0.000000 -0.999228
vn -0.039296 0.000000 0.999228
vn -0.039296 0.000000 0.999228
vn -0.039296 0.000000 0.999228
vn -0.039296 0.000000 0.999228
vn 0.864029 0.502294 0.033979
vn 0.864029 0.502294 0.033979
vn 0.864029 0.502294 0.033979
vn 0.864029 0.502294 0.033979
vn 0.039296 -0.000000 -0.999228
vn 0.039296 -0.000000 -0.999228
vn 0.039296 -0.000000 -0.999228
vn 0.039296 -0.000000 -0.999228
vn -0.864029 0.502295 -0.033979
vn -0.864029 0.502295 -0.033979
vn -0.864029 0.502295 -0.033979
vn -0.864029 0.502295 -0.033979
vn -0.039296 -0.000000 0.999228
vn -0.039296 -0.000000 0.999228
vn -0.039296 -0.000000 0.999228
vn -0.039296 -0.000000 0.999228
vn 0.999228 0.000000 0.039296
vn 0.999228 0.000000 0.039296
vn 0.999228 0.000000 0.039296
vn 0.999228 0.000000 0.039296
vn 0.000000 1.000000 0.000000
vn 0.000000 1.000000 0.000000
vn 0.000000 1.000000 0.000000
vn 0.000000 1.000000 0.000000
vn -0.999228 0.000000 -0.039296
vn -0.999228 0.000000 -0.039296
vn -0.999228 0.000000 -0.039296
vn -0.999228 0.000000 -0.039296
vn 0.000000 -1.000000 0.000000
vn 0.000000 -1.000000 0.000000
vn 0.000000 -1.000000 0.000000
vn 0.000000 -1.000000 0.000000
vn 0.039296 0.000000 -0.999228
vn 0.039296 0.000000 -0.999228
vn 0.039296 0.000000 -0.999228
vn 0.039296 0.000000 -0.999228
vn -0.039296 0.000000 0.999228
vn -0.039296 0.000000 0.999228
vn -0.039296 0.000000 0.999228
vn -0.039296 0.000000 0.999228
vn 0.864029 0.502294 0.033979
vn 0.864029 0.502294 0.033979
vn 0.864029 0.502294 0.033979
vn 0.864029 0.502294 0.033979
vn 0.039296 0.000000 -0.999228
vn 0.039296 0.000000 -0.999228
vn 0.039296 0.000000 -0.999228
vn 0.039296 0.000000 -0.999228
vn -0.864029 0.502294 -0.033979
vn -0.864029 0.502294 -0.033979
vn -0.864029 0.502294 -0.033979
vn -0.864029 0.502294 -0.033979
vn -0.039296 0.000000 0.999228
vn -0.039296 0.000000 0.999228
vn -0.039296 0.000000 0.999228
vn -0.039296 0.000000 0.999228
vn 0.999228 0.000000 0.039296
vn 0.999228 0.000000 0.039296
vn 0.999228 0.000000 0.039296
vn 0.999228 0.000000 0.039296
vn 0.000000 1.000000 0.000000
vn 0.000000 1.000000 0.000000
vn 0.000000 1.000000 0.000000
vn 0.000000 1.000000 0.000000
vn -0.999228 0.000000 -0.039296
vn -0.999228 0.000000 -0.039296
vn -0.999228 0.000000 -0.039296
vn -0.999228 0.000000 -0.039296
vn 0.000000 -1.000000 0.000000
vn 0.000000 -1.000000 0.000000
vn 0.000000 -1.000000 0.000000
vn 0.000000 -1.000000 0.000000
vn 0.039296 0.000000 -0.999228
vn 0.039296 0.000000 -0.999228
vn 0.039296 0.000000 -0.999228
vn 0.039296 0.000000 -0.999228
vn -0.039296 0.000000 0.999228
vn -0.039296 0.000000 0.999228
vn -0.039296 0.000000 0.999228
vn -0.039296 0.000000 0.999228
vn 0.864029 0.502295 0.033979
vn 0.864029 0.502295 0.033979
vn 0.864029 0.502295 0.033979
vn 0.864029 0.502295 0.033979
vn 0.039296 -0.000000 -0.999228
vn 0.039296 -0.000000 -0.999228
vn 0.039296 -0.000000 -0.999228
vn 0.039296 -0.000000 -0.999228
vn -0.864029 0.502295 -0.033979
vn -0.864029 0.502295 -0.033979
vn -0.864029 0.502295 -0.033979
vn -0.864029 0.502295 -0.033979
vn -0.039296 -0.000000 0.999228
vn -0.039296 -0.000000 0.999228
vn -0.039296 -0.000000 0.999228
vn -0.039296 -0.000000 0.999228
vn 0.999228 0.000000 0.039296
vn 0.999228 0.000000 0.039296
vn 0.999228 0.000000 0.039296
vn 0.999228 0.000000 0.039296
vn 0.000000 1.000000 0.000000
vn 0.000000 1.000000 0.000000
vn 0.000000 1.000000 0.000000
vn 0.000000 1.000000 0.000000
vn -0.999228 0.000000 -0.039296
vn -0.999228 0.000000 -0.039296
vn -0.999228 0.000000 -0.039296
vn -0.999228 0.000000 -0.039296
vn 0.000000 -1.000000 0.000000
vn 0.000000 -1.000000 0.000000
vn 0.000000 -1.000000 0.000000
vn 0.000000 -1.000000 0.000000
vn 0.039296 0.000000 -0.999228
vn 0.039296 0.000000 -0.999228
vn 0.039296 0.000000 -0.999228
vn 0.039296 0.000000 -0.999228
vn -0.039296 0.000000 0.999228
vn -0.039296 0.000000 0.999228
vn -0.039296 0.000000 0.999228
vn -0.039296 0.000000 0.999228
vn 0.864029 0.502295 0.033979
vn 0.864029 0.502295 0.033979
vn 0.864029 0.502295 0.033979
vn 0.864029 0.502295 0.033979
vn 0.039296 -0.000000 -0.999228
vn 0.039296 -0.000000 -0.999228
vn 0.039296 -0.000000 -0.999228
vn 0.039296 -0.000000 -0.999228
vn -0.864029 0.502295 -0.033979
vn -0.864029 0.502295 -0.033979
vn -0.864029 0.502295 -0.033979
vn -0.864029 0.502295 -0.033979
vn -0.039296 -0.000000 0.999228
vn -0.039296 -0.000000 0.999228
vn -0.039296 -0.000000 0.999228
vn -0.039296 -0.000000 0.999228
vn 0.999228 0.000000 0.039296
vn 0.999228 0.000000 0.039296
vn 0.999228 0.000000 0.039296
vn 0.999228 0.000000 0.039296
vn 0.000000 1.000000 0.000000
vn 0.000000 1.000000 0.000000
vn 0.000000 1.000000 0.000000
vn 0.000000 1.000000 0.000000
vn -0.999228 0.000000 -0.039296
vn -0.999228 0.000000 -0.039296
vn -0.999228 0.000000 -0.039296
vn -0.999228 0.000000 -0.039296
vn 0.000000 -1.000000 0.000000
vn 0.000000 -1.000000 0.000000
vn 0.000000 -1.000000 0.000000
vn 0.000000 -1.000000 0.000000
vn 0.039296 0.000000 -0.999228
vn 0.039296 0.000000 -0.999228
vn 0.039296 0.000000 -0.999228
vn 0.039296 0.000000 -0.999228
vn -0.039296 0.000000 0.999228
vn -0.039296 0.000000 0.999228
vn -0.039296 0.000000 0.999228
vn -0.039296 0.000000 0.999228
vn 0.999228 0.000000 0.039296
vn 0.999228 0.000000 0.039296
vn 0.999228 0.000000 0.039296
vn 0.999228 0.000000 0.039296
vn 0.000000 1.000000 0.000000
vn 0.000000 1.000000 0.000000
vn 0.000000 1.000000 0.000000
vn 0.000000 1.000000 0.000000
vn -0.999228 0.000000 -0.039296
vn -0.999228 0.000000 -0.039296
vn -0.999228 0.000000 -0.039296
vn -0.999228 0.000000 -0.039296
vn 0.000000 -1.000000 0.000000
vn 0.000000 -1.000000 0.000000
vn 0.000000 -1.000000 0.000000
vn 0.000000 -1.000000 0.000000
vn 0.039296 0.000000 -0.999228
vn 0.039296 0.000000 -0.999228
vn 0.039296 0.000000 -0.999228
vn 0.039296 0.000000 -0.999228
vn -0.039296 0.000000 0.999228
vn -0.039296 0.000000 0.999228
vn -0.039296 0.000000 0.999228
vn -0.039296 0.000000 0.999228
vn 0.864029 0.502295 0.033979
vn 0.864029 0.502295 0.033979
vn 0.864029 0.502295 0.033979
vn 0.864029 0.502295 0.033979
vn 0.039296 -0.000000 -0.999228
vn 0.039296 -0.000000 -0.999228
vn 0.039296 -0.000000 -0.999228
vn 0.039296 -0.000000 -0.999228
vn -0.864029 0.502295 -0.033979
vn -0.864029 0.502295 -0.033979
vn -0.864029 0.502295 -0.033979
vn -0.864029 0.502295 -0.033979
vn -0.039296 -0.000000 0.999228
vn -0.039296 -0.000000 0.999228
vn -0.039296 -0.000000 0.999228
vn -0.039296 -0.000000 0.999228
vn 0.999228 0.000000 0.039296
vn 0.999228 0.000000 0.039296
vn 0.999228 0.000000 0.039296
vn 0.999228 0.000000 0.039296
vn 0.000000 1.000000 0.000000
vn 0.000000 1.000000 0.000000
vn 0.000000 1.000000 0.000000
vn 0.000000 1.000000 0.000000
vn -0.999228 0.000000 -0.039296
vn -0.999228 0.000000 -0.039296
vn -0.999228 0.000000 -0.039296
vn -0.999228 0.000000 -0.039296
vn 0.000000 -1.000000 0.000000
vn 0.000000 -1.000000 0.000000
vn 0.000000 -1.000000 0.000000
vn 0.000000 -1.000000 0.000000
vn 0.039296 0.000000 -0.999228
vn 0.039296 0.000000 -0.999228
vn 0.039296 0.000000 -0.999228
vn 0.039296 0.000000 -0.999228
vn -0.039296 0.000000 0.999228
vn -0.039296 0.000000 0.999228
vn -0.039296 0.000000 0.999228
vn -0.039296 0.000000 0.999228
s off
g pCube19
usemtl initialShadingGroup
f 1/1/1 2/2/2 4/4/3 3/3/4
f 9/15/5 10/16/6 11/17/7 12/18/8
f 5/5/9 6/6/10 8/8/11 7/7/12
f 7/7/13 8/8/14 2/10/15 1/9/16
f 2/2/17 8/11/18 6/12/19 4/4/20
f 7/13/21 1/1/22 3/3/23 5/14/24
f 3/3/25 4/4/26 10/16/27 9/15/28
f 4/4/29 6/6/30 11/17/31 10/16/32
f 6/6/33 5/5/34 12/18/35 11/17/36
f 5/5/37 3/3/38 9/15/39 12/18/40
f 13/19/41 14/20/42 16/21/43 15/22/44
f 21/23/45 22/24/46 23/25/47 24/26/48
f 17/27/49 18/28/50 20/29/51 19/30/52
f 19/30/53 20/29/54 14/31/55 13/32/56
f 14/20/57 20/33/58 18/34/59 16/21/60
f 19/35/61 13/19/62 15/22/63 17/36/64
f 15/22/65 16/21/66 22/24/67 21/23/68
f 16/21/69 18/28/70 23/25/71 22/24/72
f 18/28/73 17/27/74 24/26/75 23/25/76
f 17/27/77 15/22/78 21/23/79 24/26/80
f 25/37/81 26/38/82 28/39/83 27/40/84
f 33/41/85 34/42/86 35/43/87 36/44/88
f 29/45/89 30/46/90 32/47/91 31/48/92
f 31/48/93 32/47/94 26/49/95 25/50/96
f 26/38/97 32/51/98 30/52/99 28/39/100
f 31/53/101 25/37/102 27/40/103 29/54/104
f 27/40/105 28/39/106 34/42/107 33/41/108
f 28/39/109 30/46/110 35/43/111 34/42/112
f 30/46/113 29/45/114 36/44/115 35/43/116
f 29/45/117 27/40/118 33/41/119 36/44/120
f 37/55/121 38/56/122 40/57/123 39/58/124
f 45/59/125 46/60/126 47/61/127 48/62/128
f 41/63/129 42/64/130 44/65/131 43/66/132
f 43/66/133 44/65/134 38/67/135 37/68/136
f 38/56/137 44/69/138 42/70/139 40/57/140
f 43/71/141 37/55/142 39/58/143 41/72/144
f 39/58/145 40/57/146 46/60/147 45/59/148
f 40/57/149 42/64/150 47/61/151 46/60/152
f 42/64/153 41/63/154 48/62/155 47/61/156
f 41/63/157 39/58/158 45/59/159 48/62/160
f 49/73/161 50/74/162 52/75/163 51/76/164
f 51/76/165 52/75/166 54/77/167 53/78/168
f 53/78/169 54/77/170 56/79/171 55/80/172
f 55/80/173 56/79/174 50/81/175 49/82/176
f 50/74/177 56/83/178 54/84/179 52/75/180
f 55/85/181 49/73/182 51/76/183 53/86/184
f 57/87/185 58/88/186 60/89/187 59/90/188
f 65/91/189 66/92/190 67/93/191 68/94/192
f 61/95/193 62/96/194 64/97/195 63/98/196
f 63/98/197 64/97/198 58/99/199 57/100/200
f 58/88/201 64/101/202 62/102/203 60/89/204
f 63/103/205 57/87/206 59/90/207 61/104/208
f 59/90/209 60/89/210 66/92/211 65/91/212
f 60/89/213 62/96/214 67/93/215 66/92/216
f 62/96/217 61/95/218 68/94/219 67/93/220
f 61/95/221 59/90/222 65/91/223 68/94/224
f 69/105/225 70/106/226 72/107/227 71/108/228
f 71/108/229 72/107/230 74/109/231 73/110/232
f 73/110/233 74/109/234 76/111/235 75/112/236
f 75/112/237 76/111/238 70/113/239 69/114/240
f 70/106/241 76/115/242 74/116/243 72/107/244
f 75/117/245 69/105/246 71/108/247 73/118/248
