# This file uses centimeters as units for non-parametric coordinates.

mtllib Lamp_post.mtl
g default
v -0.586843 -0.008765 3.315106
v 0.475205 -0.008765 3.315106
v -0.316115 0.118217 3.044377
v 0.204477 0.118217 3.044377
v -0.316115 0.118217 2.523785
v 0.204477 0.118217 2.523785
v -0.586843 -0.008765 2.253057
v 0.475205 -0.008765 2.253057
v -0.316115 0.334706 3.044377
v 0.204477 0.334706 3.044377
v 0.204477 0.334706 2.523785
v -0.316115 0.334706 2.523785
v -0.235475 0.893602 2.963738
v 0.123837 0.893602 2.963738
v 0.123837 0.893602 2.604424
v -0.235475 0.893602 2.604424
v -0.152090 1.033397 2.880353
v 0.040452 1.033397 2.880353
v 0.040452 1.033397 2.687810
v -0.152090 1.033397 2.687810
v -0.152090 3.892349 2.880353
v 0.040452 3.892349 2.880353
v 0.040452 3.892349 2.687810
v -0.152090 3.892349 2.687810
v -0.111275 3.892349 2.839536
v -0.000364 3.892349 2.839536
v -0.000364 3.892349 2.728626
v -0.111275 3.892349 2.728626
v -0.111275 4.009796 2.839536
v -0.000364 4.009796 2.839536
v -0.000364 4.009796 2.728626
v -0.111275 4.009796 2.728626
v -0.198519 4.097017 2.926781
v 0.086882 4.097017 2.926781
v 0.086882 4.097017 2.641381
v -0.198519 4.097017 2.641381
v -0.409141 4.786035 3.137402
v 0.297502 4.786035 3.137402
v 0.297502 4.786035 2.430760
v -0.409141 4.786035 2.430760
v -0.122108 5.176359 2.850371
v 0.010469 5.176359 2.850371
v 0.010469 5.176359 2.717792
v -0.122108 5.176359 2.717792
v -0.122108 5.218704 2.850370
v 0.010469 5.218704 2.850370
v 0.010469 5.218704 2.717793
v -0.122108 5.218704 2.717793
v -0.185460 4.162589 2.899622
v -0.185460 4.162589 2.668542
v -0.355993 4.720465 3.070155
v -0.355993 4.720465 2.498007
v -0.366013 4.823056 3.070379
v -0.366013 4.823056 2.497783
v -0.133428 5.139337 2.837795
v -0.133428 5.139337 2.730368
v -0.170393 4.164919 2.947537
v 0.058756 4.164919 2.947537
v 0.227864 4.718134 3.116646
v -0.339502 4.718134 3.116646
v -0.170521 4.164612 2.620719
v 0.058883 4.164612 2.620719
v -0.339817 4.718442 2.451422
v 0.228179 4.718442 2.451422
v 0.102912 4.149458 2.905060
v 0.102912 4.149458 2.663103
v 0.281472 4.733595 2.484542
v 0.281472 4.733595 3.083620
vt 0.375000 0.000000
vt 0.625000 0.000000
vt 0.375000 0.250000
vt 0.625000 0.250000
vt 0.375000 0.500000
vt 0.625000 0.500000
vt 0.375000 0.750000
vt 0.625000 0.750000
vt 0.375000 1.000000
vt 0.625000 1.000000
vt 0.875000 0.000000
vt 0.875000 0.250000
vt 0.125000 0.000000
vt 0.125000 0.250000
vt 0.375000 0.250000
vt 0.625000 0.250000
vt 0.625000 0.500000
vt 0.375000 0.500000
vt 0.375000 0.250000
vt 0.625000 0.250000
vt 0.625000 0.500000
vt 0.375000 0.500000
vt 0.375000 0.250000
vt 0.625000 0.250000
vt 0.625000 0.500000
vt 0.375000 0.500000
vt 0.375000 0.250000
vt 0.625000 0.250000
vt 0.625000 0.500000
vt 0.375000 0.500000
vt 0.375000 0.250000
vt 0.625000 0.250000
vt 0.625000 0.500000
vt 0.375000 0.500000
vt 0.375000 0.250000
vt 0.625000 0.250000
vt 0.625000 0.500000
vt 0.375000 0.500000
vt 0.375000 0.250000
vt 0.625000 0.250000
vt 0.625000 0.500000
vt 0.375000 0.500000
vt 0.375000 0.250000
vt 0.625000 0.250000
vt 0.625000 0.500000
vt 0.375000 0.500000
vt 0.375000 0.250000
vt 0.625000 0.250000
vt 0.625000 0.500000
vt 0.375000 0.500000
vt 0.375000 0.250000
vt 0.625000 0.250000
vt 0.625000 0.500000
vt 0.375000 0.500000
vt 0.375000 0.500000
vt 0.375000 0.250000
vt 0.375000 0.250000
vt 0.375000 0.500000
vt 0.375000 0.500000
vt 0.375000 0.250000
vt 0.375000 0.250000
vt 0.375000 0.500000
vt 0.375000 0.250000
vt 0.625000 0.250000
vt 0.625000 0.250000
vt 0.375000 0.250000
vt 0.625000 0.500000
vt 0.375000 0.500000
vt 0.375000 0.500000
vt 0.625000 0.500000
vt 0.625000 0.250000
vt 0.625000 0.500000
vt 0.625000 0.500000
vt 0.625000 0.250000
vn 0.000000 0.905359 0.424647
vn 0.000000 0.905359 0.424647
vn 0.000000 0.905359 0.424647
vn 0.000000 0.905359 0.424646
vn 0.000000 1.000000 0.000000
vn 0.000000 1.000000 0.000000
vn 0.000000 1.000000 0.000000
vn 0.000000 1.000000 0.000000
vn 0.000000 0.905358 -0.424648
vn 0.000000 0.905358 -0.424648
vn 0.000000 0.905358 -0.424648
vn 0.000000 0.905358 -0.424648
vn 0.000000 -1.000000 0.000000
vn 0.000000 -1.000000 0.000000
vn 0.000000 -1.000000 0.000000
vn 0.000000 -1.000000 0.000000
vn 0.424648 0.905359 0.000000
vn 0.424648 0.905359 0.000000
vn 0.424648 0.905359 0.000000
vn 0.424648 0.905359 0.000000
vn -0.424649 0.905358 0.000000
vn -0.424648 0.905358 0.000000
vn -0.424649 0.905358 0.000000
vn -0.424649 0.905358 0.000000
vn 0.000000 0.000000 1.000000
vn 0.000000 0.000000 1.000000
vn 0.000000 0.000000 1.000000
vn 0.000000 0.000000 1.000000
vn 1.000000 0.000000 0.000000
vn 1.000000 0.000000 0.000000
vn 1.000000 0.000000 0.000000
vn 1.000000 0.000000 0.000000
vn 0.000000 0.000000 -1.000000
vn 0.000000 0.000000 -1.000000
vn 0.000000 0.000000 -1.000000
vn 0.000000 0.000000 -1.000000
vn -1.000000 0.000000 0.000000
vn -1.000000 0.000000 0.000000
vn -1.000000 0.000000 0.000000
vn -1.000000 0.000000 0.000000
vn 0.000000 0.142804 0.989751
vn 0.000000 0.142804 0.989751
vn 0.000000 0.142804 0.989751
vn 0.000000 0.142804 0.989751
vn 0.989751 0.142806 0.000000
vn 0.989751 0.142806 0.000000
vn 0.989751 0.142806 0.000000
vn 0.989751 0.142806 0.000000
vn 0.000000 0.142804 -0.989751
vn 0.000000 0.142804 -0.989751
vn 0.000000 0.142804 -0.989751
vn 0.000000 0.142804 -0.989751
vn -0.989751 0.142806 0.000000
vn -0.989751 0.142806 0.000000
vn -0.989751 0.142806 0.000000
vn -0.989751 0.142806 0.000000
vn 0.000000 0.512270 0.858824
vn 0.000000 0.512270 0.858824
vn 0.000000 0.512270 0.858824
vn 0.000000 0.512270 0.858824
vn 0.858822 0.512275 0.000000
vn 0.858822 0.512275 0.000000
vn 0.858822 0.512275 0.000000
vn 0.858822 0.512275 0.000000
vn 0.000000 0.512274 -0.858822
vn 0.000000 0.512274 -0.858822
vn 0.000000 0.512274 -0.858822
vn 0.000000 0.512274 -0.858822
vn -0.858824 0.512270 0.000000
vn -0.858824 0.512270 0.000000
vn -0.858824 0.512270 0.000000
vn -0.858824 0.512270 0.000000
vn 0.000000 0.000000 1.000000
vn 0.000000 0.000000 1.000000
vn 0.000000 0.000000 1.000000
vn 0.000000 0.000000 1.000000
vn 1.000000 0.000000 0.000000
vn 1.000000 0.000000 0.000000
vn 1.000000 0.000000 0.000000
vn 1.000000 0.000000 0.000000
vn 0.000000 0.000000 -1.000000
vn 0.000000 0.000000 -1.000000
vn 0.000000 0.000000 -1.000000
vn 0.000000 0.000000 -1.000000
vn -1.000000 0.000000 0.000000
vn -1.000000 0.000000 0.000000
vn -1.000000 0.000000 0.000000
vn -1.000000 0.000000 0.000000
vn 0.000000 1.000000 0.000003
vn 0.000000 1.000000 0.000003
vn 0.000000 1.000000 0.000003
vn 0.000000 1.000000 0.000003
vn 0.000000 1.000000 0.000000
vn 0.000000 1.000000 0.000000
vn 0.000000 1.000000 0.000000
vn 0.000000 1.000000 0.000000
vn 0.000000 1.000000 -0.000003
vn 0.000000 1.000000 -0.000003
vn 0.000000 1.000000 -0.000003
vn 0.000000 1.000000 -0.000003
vn 0.000000 1.000000 0.000000
vn 0.000000 1.000000 0.000000
vn 0.000000 1.000000 0.000000
vn 0.000000 1.000000 0.000000
vn 0.000000 0.000000 1.000000
vn 0.000000 0.000000 1.000000
vn 0.000000 0.000000 1.000000
vn 0.000000 0.000000 1.000000
vn 1.000000 0.000000 0.000000
vn 1.000000 0.000000 0.000000
vn 1.000000 0.000000 0.000000
vn 1.000000 0.000000 0.000000
vn 0.000000 0.000000 -1.000000
vn 0.000000 0.000000 -1.000000
vn 0.000000 0.000000 -1.000000
vn 0.000000 0.000000 -1.000000
vn -1.000000 0.000000 0.000000
vn -1.000000 0.000000 0.000000
vn -1.000000 0.000000 0.000000
vn -1.000000 0.000000 0.000000
vn 0.000000 -0.707204 0.707009
vn 0.000000 -0.707204 0.707009
vn 0.000000 -0.707204 0.707009
vn 0.000000 -0.707204 0.707009
vn 0.707008 -0.707205 0.000000
vn 0.707008 -0.707205 0.000000
vn 0.707008 -0.707205 0.000000
vn 0.707008 -0.707205 0.000000
vn 0.000000 -0.707204 -0.707009
vn 0.000000 -0.707204 -0.707009
vn 0.000000 -0.707204 -0.707009
vn 0.000000 -0.707204 -0.707009
vn -0.707014 -0.707199 0.000000
vn -0.707014 -0.707199 0.000000
vn -0.707014 -0.707199 0.000000
vn -0.707014 -0.707199 0.000000
vn 0.000000 -0.292330 0.956317
vn 0.000000 -0.292330 0.956317
vn 0.000000 -0.292330 0.956317
vn 0.000000 -0.292330 0.956317
vn 0.956318 -0.292329 0.000000
vn 0.956318 -0.292329 0.000000
vn 0.956318 -0.292329 0.000000
vn 0.956318 -0.292329 0.000000
vn 0.000000 -0.292330 -0.956317
vn 0.000000 -0.292330 -0.956317
vn 0.000000 -0.292330 -0.956317
vn 0.000000 -0.292330 -0.956317
vn -0.956318 -0.292330 0.000000
vn -0.956317 -0.292330 0.000000
vn -0.956318 -0.292330 0.000000
vn -0.956318 -0.292330 0.000000
vn 0.000000 0.592430 0.805622
vn 0.000000 0.592430 0.805622
vn 0.000000 0.592430 0.805622
vn 0.000000 0.592430 0.805622
vn 0.805621 0.592431 0.000000
vn 0.805621 0.592431 0.000000
vn 0.805621 0.592431 0.000000
vn 0.805621 0.592431 0.000000
vn 0.000000 0.592430 -0.805622
vn 0.000000 0.592430 -0.805622
vn 0.000000 0.592430 -0.805622
vn 0.000000 0.592430 -0.805622
vn -0.805621 0.592431 0.000000
vn -0.805621 0.592431 0.000000
vn -0.805621 0.592431 0.000000
vn -0.805621 0.592431 0.000000
vn 0.000000 0.000006 1.000000
vn 0.000000 0.000006 1.000000
vn 0.000000 0.000006 1.000000
vn 0.000000 0.000006 1.000000
vn 1.000000 0.000000 0.000000
vn 1.000000 0.000000 0.000000
vn 1.000000 0.000000 0.000000
vn 1.000000 0.000000 0.000000
vn 0.000000 0.000006 -1.000000
vn 0.000000 0.000006 -1.000000
vn 0.000000 0.000006 -1.000000
vn 0.000000 0.000006 -1.000000
vn -1.000000 0.000000 0.000000
vn -1.000000 0.000000 0.000000
vn -1.000000 0.000000 0.000000
vn -1.000000 0.000000 0.000000
vn -0.980739 0.195323 0.000000
vn -0.980739 0.195323 0.000000
vn -0.980739 0.195323 0.000000
vn -0.980739 0.195323 0.000000
vn -0.816455 -0.074549 -0.572576
vn -0.816455 -0.074549 -0.572576
vn -0.816455 -0.074549 -0.572576
vn -0.816455 -0.074549 -0.572576
vn -0.776856 -0.629679 0.000000
vn -0.776855 -0.629679 0.000000
vn -0.776856 -0.629679 0.000000
vn -0.776855 -0.629679 0.000000
vn -0.816459 -0.074552 0.572570
vn -0.816459 -0.074552 0.572570
vn -0.816459 -0.074552 0.572570
vn -0.816459 -0.074552 0.572570
vn -0.651341 0.758785 0.000000
vn -0.651341 0.758785 0.000000
vn -0.651341 0.758785 0.000000
vn -0.651341 0.758785 0.000000
vn -0.859196 0.379351 -0.343330
vn -0.859196 0.379351 -0.343330
vn -0.859196 0.379351 -0.343330
vn -0.859196 0.379351 -0.343330
vn -0.956290 0.292422 0.000000
vn -0.956290 0.292422 0.000000
vn -0.956290 0.292421 0.000000
vn -0.956290 0.292421 0.000000
vn -0.859195 0.379352 0.343331
vn -0.859195 0.379352 0.343331
vn -0.859195 0.379351 0.343331
vn -0.859195 0.379352 0.343331
vn 0.000000 -0.292323 0.956320
vn 0.000000 -0.292323 0.956320
vn 0.000000 -0.292323 0.956320
vn 0.000000 -0.292323 0.956320
vn -0.000010 -0.292327 0.956318
vn -0.000010 -0.292327 0.956318
vn -0.000010 -0.292327 0.956318
vn -0.000010 -0.292327 0.956318
vn 0.000000 -0.292337 0.956315
vn 0.000000 -0.292337 0.956315
vn 0.000000 -0.292337 0.956316
vn 0.000000 -0.292337 0.956316
vn 0.000010 -0.292327 0.956318
vn 0.000010 -0.292327 0.956318
vn 0.000010 -0.292327 0.956318
vn 0.000010 -0.292327 0.956318
vn 0.000008 -0.292328 -0.956318
vn 0.000008 -0.292328 -0.956318
vn 0.000008 -0.292328 -0.956318
vn 0.000008 -0.292328 -0.956318
vn 0.000000 -0.292331 -0.956317
vn 0.000000 -0.292331 -0.956317
vn 0.000000 -0.292331 -0.956317
vn 0.000000 -0.292331 -0.956317
vn -0.000008 -0.292328 -0.956318
vn -0.000008 -0.292328 -0.956318
vn -0.000008 -0.292328 -0.956318
vn -0.000008 -0.292328 -0.956318
vn 0.956317 -0.292332 0.000000
vn 0.956317 -0.292332 0.000000
vn 0.956317 -0.292332 0.000000
vn 0.956317 -0.292332 0.000000
vn 0.956318 -0.292329 0.000003
vn 0.956318 -0.292329 0.000003
vn 0.956318 -0.292329 0.000003
vn 0.956318 -0.292329 0.000003
vn 0.956316 -0.292336 0.000000
vn 0.956316 -0.292336 0.000000
vn 0.956316 -0.292336 0.000000
vn 0.956316 -0.292336 0.000000
vn 0.956318 -0.292329 -0.000002
vn 0.956318 -0.292329 -0.000002
vn 0.956318 -0.292329 -0.000002
vn 0.956318 -0.292329 -0.000002
vn 0.000000 -0.292320 -0.956321
vn 0.000000 -0.292320 -0.956321
vn 0.000000 -0.292320 -0.956321
vn 0.000000 -0.292320 -0.956321
s off
g pCube42
usemtl aiStandardSurface26SG
f 1/1/1 2/2/2 4/4/3 3/3/4
f 45/51/5 46/52/6 47/53/7 48/54/8
f 5/5/9 6/6/10 8/8/11 7/7/12
f 7/7/13 8/8/14 2/10/15 1/9/16
f 2/2/17 8/11/18 6/12/19 4/4/20
f 7/13/21 1/1/22 3/3/23 5/14/24
f 3/3/25 4/4/26 10/16/27 9/15/28
f 4/4/29 6/6/30 11/17/31 10/16/32
f 6/6/33 5/5/34 12/18/35 11/17/36
f 5/5/37 3/3/38 9/15/39 12/18/40
f 9/15/41 10/16/42 14/20/43 13/19/44
f 10/16/45 11/17/46 15/21/47 14/20/48
f 11/17/49 12/18/50 16/22/51 15/21/52
f 12/18/53 9/15/54 13/19/55 16/22/56
f 13/19/57 14/20/58 18/24/59 17/23/60
f 14/20/61 15/21/62 19/25/63 18/24/64
f 15/21/65 16/22/66 20/26/67 19/25/68
f 16/22/69 13/19/70 17/23/71 20/26/72
f 17/23/73 18/24/74 22/28/75 21/27/76
f 18/24/77 19/25/78 23/29/79 22/28/80
f 19/25/81 20/26/82 24/30/83 23/29/84
f 20/26/85 17/23/86 21/27/87 24/30/88
f 21/27/89 22/28/90 26/32/91 25/31/92
f 22/28/93 23/29/94 27/33/95 26/32/96
f 23/29/97 24/30/98 28/34/99 27/33/100
f 24/30/101 21/27/102 25/31/103 28/34/104
f 25/31/105 26/32/106 30/36/107 29/35/108
f 26/32/109 27/33/110 31/37/111 30/36/112
f 27/33/113 28/34/114 32/38/115 31/37/116
f 28/34/117 25/31/118 29/35/119 32/38/120
f 29/35/121 30/36/122 34/40/123 33/39/124
f 30/36/125 31/37/126 35/41/127 34/40/128
f 31/37/129 32/38/130 36/42/131 35/41/132
f 32/38/133 29/35/134 33/39/135 36/42/136
usemtl aiStandardSurface6SG
f 57/63/137 58/64/138 59/65/139 60/66/140
f 65/71/141 66/72/142 67/73/143 68/74/144
f 62/67/145 61/68/146 63/69/147 64/70/148
f 50/55/149 49/56/150 51/57/151 52/58/152
usemtl aiStandardSurface26SG
f 37/43/153 38/44/154 42/48/155 41/47/156
f 38/44/157 39/45/158 43/49/159 42/48/160
f 39/45/161 40/46/162 44/50/163 43/49/164
f 54/59/165 53/60/166 55/61/167 56/62/168
f 41/47/169 42/48/170 46/52/171 45/51/172
f 42/48/173 43/49/174 47/53/175 46/52/176
f 43/49/177 44/50/178 48/54/179 47/53/180
f 44/50/181 41/47/182 45/51/183 48/54/184
f 36/42/185 33/39/186 49/56/187 50/55/188
f 33/39/189 37/43/190 51/57/191 49/56/192
f 37/43/193 40/46/194 52/58/195 51/57/196
f 40/46/197 36/42/198 50/55/199 52/58/200
f 40/46/201 37/43/202 53/60/203 54/59/204
f 37/43/205 41/47/206 55/61/207 53/60/208
f 41/47/209 44/50/210 56/62/211 55/61/212
f 44/50/213 40/46/214 54/59/215 56/62/216
f 33/39/217 34/40/218 58/64/219 57/63/220
f 34/40/221 38/44/222 59/65/223 58/64/224
f 38/44/225 37/43/226 60/66/227 59/65/228
f 37/43/229 33/39/230 57/63/231 60/66/232
f 36/42/233 40/46/234 63/69/235 61/68/236
f 40/46/237 39/45/238 64/70/239 63/69/240
f 39/45/241 35/41/242 62/67/243 64/70/244
f 34/40/245 35/41/246 66/72/247 65/71/248
f 35/41/249 39/45/250 67/73/251 66/72/252
f 39/45/253 38/44/254 68/74/255 67/73/256
f 38/44/257 34/40/258 65/71/259 68/74/260
f 36/42/261 61/68/262 62/67/263 35/41/264
