# This file uses centimeters as units for non-parametric coordinates.

mtllib Lollipop_two.mtl
g default
v -1.058724 0.874498 -1.125787
v -1.070688 0.918367 -1.106905
v -1.089321 0.953182 -1.077497
v -1.112800 0.975534 -1.040440
v -1.138827 0.983236 -0.999362
v -1.164853 0.975534 -0.958284
v -1.188332 0.953182 -0.921227
v -1.206965 0.918367 -0.891818
v -1.218929 0.874498 -0.872937
v -1.223051 0.825869 -0.866431
v -1.218929 0.777240 -0.872937
v -1.206965 0.733371 -0.891818
v -1.188332 0.698557 -0.921227
v -1.164853 0.676204 -0.958284
v -1.138827 0.668502 -0.999362
v -1.112800 0.676204 -1.040440
v -1.089321 0.698557 -1.077497
v -1.070688 0.733371 -1.106905
v -1.058725 0.777240 -1.125787
v -1.054602 0.825869 -1.132293
v -1.016698 0.874498 -1.099159
v -1.028661 0.918367 -1.080277
v -1.047294 0.953182 -1.050869
v -1.070773 0.975534 -1.013812
v -1.096800 0.983236 -0.972734
v -1.122826 0.975534 -0.931656
v -1.146305 0.953182 -0.894599
v -1.164939 0.918367 -0.865190
v -1.176902 0.874498 -0.846309
v -1.181024 0.825869 -0.839803
v -1.176902 0.777240 -0.846309
v -1.164939 0.733371 -0.865190
v -1.146305 0.698557 -0.894599
v -1.122826 0.676204 -0.931656
v -1.096800 0.668502 -0.972734
v -1.070773 0.676204 -1.013812
v -1.047294 0.698557 -1.050869
v -1.028661 0.733371 -1.080277
v -1.016698 0.777240 -1.099158
v -1.012575 0.825869 -1.105665
v -1.138827 0.825869 -0.999362
v -1.096800 0.825869 -0.972734
v -1.115743 0.256244 -0.989315
v -1.118073 0.256244 -0.990321
v -1.120601 0.256244 -0.990558
v -1.123077 0.256244 -0.990002
v -1.125261 0.256244 -0.988709
v -1.126938 0.256244 -0.986804
v -1.127945 0.256244 -0.984473
v -1.128182 0.256244 -0.981946
v -1.127626 0.256244 -0.979470
v -1.126332 0.256244 -0.977286
v -1.124427 0.256244 -0.975609
v -1.122097 0.256244 -0.974602
v -1.119570 0.256244 -0.974365
v -1.117093 0.256244 -0.974921
v -1.114909 0.256244 -0.976214
v -1.113232 0.256244 -0.978120
v -1.112226 0.256244 -0.980450
v -1.111989 0.256244 -0.982977
v -1.112544 0.256244 -0.985454
v -1.113838 0.256244 -0.987637
v -1.115743 0.772116 -0.989315
v -1.118073 0.772116 -0.990321
v -1.120601 0.772116 -0.990558
v -1.123077 0.772116 -0.990002
v -1.125261 0.772116 -0.988709
v -1.126938 0.772116 -0.986804
v -1.127945 0.772116 -0.984473
v -1.128182 0.772116 -0.981946
v -1.127626 0.772116 -0.979470
v -1.126332 0.772116 -0.977286
v -1.124427 0.772116 -0.975609
v -1.122097 0.772116 -0.974602
v -1.119570 0.772116 -0.974365
v -1.117093 0.772116 -0.974921
v -1.114909 0.772116 -0.976214
v -1.113232 0.772116 -0.978120
v -1.112226 0.772116 -0.980450
v -1.111989 0.772116 -0.982977
v -1.112544 0.772116 -0.985454
v -1.113838 0.772116 -0.987637
v -1.111401 0.772116 -0.996167
v -1.116062 0.772116 -0.998180
v -1.121116 0.772116 -0.998654
v -1.126069 0.772116 -0.997543
v -1.130437 0.772116 -0.994956
v -1.133791 0.772116 -0.991146
v -1.135804 0.772116 -0.986485
v -1.136278 0.772116 -0.981431
v -1.135167 0.772116 -0.976478
v -1.132580 0.772116 -0.972110
v -1.128769 0.772116 -0.968756
v -1.124109 0.772116 -0.966743
v -1.119055 0.772116 -0.966269
v -1.114101 0.772116 -0.967380
v -1.109734 0.772116 -0.969967
v -1.106379 0.772116 -0.973778
v -1.104367 0.772116 -0.978438
v -1.103893 0.772116 -0.983492
v -1.105004 0.772116 -0.988446
v -1.107591 0.772116 -0.992813
v -1.111401 0.256244 -0.996167
v -1.116062 0.256244 -0.998180
v -1.121116 0.256244 -0.998654
v -1.126069 0.256244 -0.997543
v -1.130437 0.256244 -0.994956
v -1.133791 0.256244 -0.991146
v -1.135804 0.256244 -0.986485
v -1.136278 0.256244 -0.981431
v -1.135167 0.256244 -0.976478
v -1.132580 0.256244 -0.972110
v -1.128769 0.256244 -0.968756
v -1.124109 0.256244 -0.966743
v -1.119055 0.256244 -0.966269
v -1.114101 0.256244 -0.967380
v -1.109734 0.256244 -0.969967
v -1.106379 0.256244 -0.973778
v -1.104367 0.256244 -0.978438
v -1.103893 0.256244 -0.983492
v -1.105004 0.256244 -0.988446
v -1.107591 0.256244 -0.992813
vt 0.648603 0.107966
vt 0.626409 0.064408
vt 0.591842 0.029841
vt 0.548284 0.007647
vt 0.500000 -0.000000
vt 0.451716 0.007647
vt 0.408159 0.029841
vt 0.373591 0.064409
vt 0.351397 0.107966
vt 0.343750 0.156250
vt 0.351397 0.204534
vt 0.373591 0.248091
vt 0.408159 0.282659
vt 0.451716 0.304853
vt 0.500000 0.312500
vt 0.548284 0.304853
vt 0.591841 0.282659
vt 0.626409 0.248091
vt 0.648603 0.204534
vt 0.656250 0.156250
vt 0.375000 0.312500
vt 0.387500 0.312500
vt 0.400000 0.312500
vt 0.412500 0.312500
vt 0.425000 0.312500
vt 0.437500 0.312500
vt 0.450000 0.312500
vt 0.462500 0.312500
vt 0.475000 0.312500
vt 0.487500 0.312500
vt 0.500000 0.312500
vt 0.512500 0.312500
vt 0.525000 0.312500
vt 0.537500 0.312500
vt 0.550000 0.312500
vt 0.562500 0.312500
vt 0.575000 0.312500
vt 0.587500 0.312500
vt 0.600000 0.312500
vt 0.612500 0.312500
vt 0.625000 0.312500
vt 0.375000 0.688440
vt 0.387500 0.688440
vt 0.400000 0.688440
vt 0.412500 0.688440
vt 0.425000 0.688440
vt 0.437500 0.688440
vt 0.450000 0.688440
vt 0.462500 0.688440
vt 0.475000 0.688440
vt 0.487500 0.688440
vt 0.500000 0.688440
vt 0.512500 0.688440
vt 0.525000 0.688440
vt 0.537500 0.688440
vt 0.550000 0.688440
vt 0.562500 0.688440
vt 0.575000 0.688440
vt 0.587500 0.688440
vt 0.600000 0.688440
vt 0.612500 0.688440
vt 0.625000 0.688440
vt 0.648603 0.795466
vt 0.626409 0.751908
vt 0.591842 0.717341
vt 0.548284 0.695147
vt 0.500000 0.687500
vt 0.451716 0.695147
vt 0.408159 0.717341
vt 0.373591 0.751909
vt 0.351397 0.795466
vt 0.343750 0.843750
vt 0.351397 0.892034
vt 0.373591 0.935591
vt 0.408159 0.970159
vt 0.451716 0.992353
vt 0.500000 1.000000
vt 0.548284 0.992353
vt 0.591841 0.970159
vt 0.626409 0.935591
vt 0.648603 0.892034
vt 0.656250 0.843750
vt 0.500000 0.150000
vt 0.500000 0.837500
vt 0.050000 1.000000
vt 0.000000 1.000000
vt 0.000000 0.750000
vt 0.050000 0.750000
vt 0.100000 1.000000
vt 0.100000 0.750000
vt 0.150000 1.000000
vt 0.150000 0.750000
vt 0.200000 1.000000
vt 0.200000 0.750000
vt 0.250000 1.000000
vt 0.250000 0.750000
vt 0.300000 1.000000
vt 0.300000 0.750000
vt 0.350000 1.000000
vt 0.350000 0.750000
vt 0.400000 1.000000
vt 0.400000 0.750000
vt 0.450000 1.000000
vt 0.450000 0.750000
vt 0.500000 1.000000
vt 0.500000 0.750000
vt 0.550000 1.000000
vt 0.550000 0.750000
vt 0.600000 1.000000
vt 0.600000 0.750000
vt 0.650000 1.000000
vt 0.650000 0.750000
vt 0.700000 1.000000
vt 0.700000 0.750000
vt 0.750000 1.000000
vt 0.750000 0.750000
vt 0.800000 1.000000
vt 0.800000 0.750000
vt 0.850000 1.000000
vt 0.850000 0.750000
vt 0.900000 1.000000
vt 0.900000 0.750000
vt 0.950000 1.000000
vt 0.950000 0.750000
vt 1.000000 1.000000
vt 1.000000 0.750000
vt 0.000000 0.500000
vt 0.050000 0.500000
vt 0.100000 0.500000
vt 0.150000 0.500000
vt 0.200000 0.500000
vt 0.250000 0.500000
vt 0.300000 0.500000
vt 0.350000 0.500000
vt 0.400000 0.500000
vt 0.450000 0.500000
vt 0.500000 0.500000
vt 0.550000 0.500000
vt 0.600000 0.500000
vt 0.650000 0.500000
vt 0.700000 0.500000
vt 0.750000 0.500000
vt 0.800000 0.500000
vt 0.850000 0.500000
vt 0.900000 0.500000
vt 0.950000 0.500000
vt 1.000000 0.500000
vt 0.000000 0.250000
vt 0.050000 0.250000
vt 0.100000 0.250000
vt 0.150000 0.250000
vt 0.200000 0.250000
vt 0.250000 0.250000
vt 0.300000 0.250000
vt 0.350000 0.250000
vt 0.400000 0.250000
vt 0.450000 0.250000
vt 0.500000 0.250000
vt 0.550000 0.250000
vt 0.600000 0.250000
vt 0.650000 0.250000
vt 0.700000 0.250000
vt 0.750000 0.250000
vt 0.800000 0.250000
vt 0.850000 0.250000
vt 0.900000 0.250000
vt 0.950000 0.250000
vt 1.000000 0.250000
vt 0.000000 0.000000
vt 0.050000 0.000000
vt 0.100000 0.000000
vt 0.150000 0.000000
vt 0.200000 0.000000
vt 0.250000 0.000000
vt 0.300000 0.000000
vt 0.350000 0.000000
vt 0.400000 0.000000
vt 0.450000 0.000000
vt 0.500000 0.000000
vt 0.550000 0.000000
vt 0.600000 0.000000
vt 0.650000 0.000000
vt 0.700000 0.000000
vt 0.750000 0.000000
vt 0.800000 0.000000
vt 0.850000 0.000000
vt 0.900000 0.000000
vt 0.950000 0.000000
vt 1.000000 0.000000
vn 0.509015 0.309016 -0.803376
vn 0.432994 0.587785 -0.683392
vn 0.432994 0.587785 -0.683392
vn 0.509015 0.309016 -0.803376
vn 0.314588 0.809017 -0.496513
vn 0.314588 0.809017 -0.496513
vn 0.165389 0.951057 -0.261033
vn 0.165389 0.951057 -0.261033
vn 0.000000 1.000000 0.000000
vn 0.000000 1.000000 0.000000
vn -0.165389 0.951056 0.261033
vn -0.165389 0.951056 0.261033
vn -0.314589 0.809017 0.496514
vn -0.314589 0.809017 0.496514
vn -0.432994 0.587785 0.683392
vn -0.432994 0.587785 0.683392
vn -0.509015 0.309017 0.803376
vn -0.509015 0.309017 0.803376
vn -0.535210 0.000000 0.844719
vn -0.535210 0.000000 0.844719
vn -0.509015 -0.309017 0.803376
vn -0.509015 -0.309017 0.803376
vn -0.432994 -0.587785 0.683392
vn -0.432994 -0.587785 0.683392
vn -0.314588 -0.809017 0.496513
vn -0.314588 -0.809017 0.496513
vn -0.165389 -0.951057 0.261032
vn -0.165389 -0.951057 0.261032
vn 0.000000 -1.000000 0.000000
vn 0.000000 -1.000000 0.000000
vn 0.165389 -0.951057 -0.261032
vn 0.165389 -0.951057 -0.261032
vn 0.314588 -0.809017 -0.496513
vn 0.314588 -0.809017 -0.496513
vn 0.432994 -0.587785 -0.683392
vn 0.432994 -0.587785 -0.683392
vn 0.509015 -0.309017 -0.803376
vn 0.509015 -0.309017 -0.803376
vn 0.535210 -0.000001 -0.844719
vn 0.535210 -0.000001 -0.844719
vn -0.844719 0.000000 -0.535210
vn -0.844719 0.000000 -0.535210
vn -0.844719 0.000000 -0.535210
vn -0.844719 0.000000 -0.535210
vn -0.844719 0.000000 -0.535210
vn -0.844719 0.000000 -0.535210
vn -0.844719 0.000000 -0.535210
vn -0.844719 0.000000 -0.535210
vn -0.844719 0.000000 -0.535210
vn -0.844719 0.000000 -0.535210
vn -0.844719 0.000000 -0.535210
vn -0.844719 0.000000 -0.535210
vn -0.844719 0.000000 -0.535210
vn -0.844719 0.000000 -0.535210
vn -0.844719 0.000000 -0.535210
vn -0.844719 0.000000 -0.535210
vn -0.844719 0.000000 -0.535210
vn -0.844719 0.000000 -0.535210
vn -0.844719 0.000000 -0.535210
vn -0.844719 0.000000 -0.535210
vn -0.844719 0.000000 -0.535210
vn 0.844719 0.000000 0.535210
vn 0.844719 0.000000 0.535210
vn 0.844719 0.000000 0.535210
vn 0.844719 0.000000 0.535210
vn 0.844719 0.000000 0.535210
vn 0.844719 0.000000 0.535210
vn 0.844719 0.000000 0.535210
vn 0.844719 0.000000 0.535210
vn 0.844719 0.000000 0.535210
vn 0.844719 0.000000 0.535210
vn 0.844719 0.000000 0.535210
vn 0.844719 0.000000 0.535210
vn 0.844719 0.000000 0.535210
vn 0.844719 0.000000 0.535210
vn 0.844719 0.000000 0.535210
vn 0.844719 0.000000 0.535210
vn 0.844719 0.000000 0.535210
vn 0.844719 0.000000 0.535210
vn 0.844719 0.000000 0.535210
vn 0.844719 0.000000 0.535210
vn 0.844719 0.000000 0.535210
vn -0.247985 0.000000 0.968764
vn -0.535210 0.000000 0.844719
vn -0.535210 0.000000 0.844719
vn -0.247985 0.000000 0.968764
vn 0.063519 0.000000 0.997981
vn 0.063519 0.000000 0.997981
vn 0.368805 0.000000 0.929507
vn 0.368805 0.000000 0.929507
vn 0.637987 0.000000 0.770047
vn 0.637987 0.000000 0.770047
vn 0.844719 0.000000 0.535210
vn 0.844719 0.000000 0.535210
vn 0.968764 0.000000 0.247983
vn 0.968764 0.000000 0.247983
vn 0.997981 0.000000 -0.063519
vn 0.997981 0.000000 -0.063519
vn 0.929507 0.000000 -0.368805
vn 0.929507 0.000000 -0.368805
vn 0.770045 0.000000 -0.637989
vn 0.770045 0.000000 -0.637989
vn 0.535210 0.000000 -0.844719
vn 0.535210 0.000000 -0.844719
vn 0.247985 0.000000 -0.968764
vn 0.247985 0.000000 -0.968764
vn -0.063519 0.000000 -0.997981
vn -0.063519 0.000000 -0.997981
vn -0.368805 0.000000 -0.929507
vn -0.368805 0.000000 -0.929507
vn -0.637987 0.000000 -0.770047
vn -0.637987 0.000000 -0.770047
vn -0.844719 0.000000 -0.535210
vn -0.844719 0.000000 -0.535210
vn -0.968764 0.000000 -0.247983
vn -0.968764 0.000000 -0.247983
vn -0.997981 0.000000 0.063519
vn -0.997981 0.000000 0.063519
vn -0.929507 0.000000 0.368805
vn -0.929507 0.000000 0.368805
vn -0.770045 0.000000 0.637989
vn -0.770045 0.000000 0.637989
vn -0.000000 1.000000 -0.000000
vn -0.000000 1.000000 -0.000000
vn 0.000000 1.000000 0.000000
vn -0.000000 1.000000 -0.000000
vn 0.000010 1.000000 0.000006
vn 0.000010 1.000000 0.000006
vn 0.000003 1.000000 0.000002
vn 0.000003 1.000000 0.000002
vn 0.000000 1.000000 0.000000
vn 0.000000 1.000000 0.000000
vn 0.000000 1.000000 0.000000
vn 0.000000 1.000000 0.000000
vn 0.000000 1.000000 0.000000
vn 0.000000 1.000000 0.000000
vn 0.000000 1.000000 0.000000
vn 0.000000 1.000000 0.000000
vn 0.000000 1.000000 0.000000
vn 0.000000 1.000000 0.000000
vn -0.000006 1.000000 -0.000004
vn -0.000006 1.000000 -0.000004
vn 0.000000 1.000000 0.000000
vn 0.000000 1.000000 0.000000
vn -0.000000 1.000000 -0.000000
vn -0.000000 1.000000 -0.000000
vn -0.000010 1.000000 -0.000006
vn -0.000010 1.000000 -0.000006
vn -0.000003 1.000000 -0.000002
vn -0.000003 1.000000 -0.000002
vn 0.000000 1.000000 0.000000
vn 0.000000 1.000000 0.000000
vn 0.000000 1.000000 0.000000
vn 0.000000 1.000000 0.000000
vn 0.000000 1.000000 0.000000
vn 0.000000 1.000000 0.000000
vn 0.000000 1.000000 0.000000
vn 0.000000 1.000000 0.000000
vn 0.000000 1.000000 0.000000
vn 0.000000 1.000000 0.000000
vn 0.000006 1.000000 0.000004
vn 0.000006 1.000000 0.000004
vn 0.247982 0.000000 -0.968765
vn 0.535210 -0.000000 -0.844719
vn 0.535210 -0.000000 -0.844719
vn 0.247982 0.000000 -0.968765
vn -0.063521 0.000000 -0.997981
vn -0.063521 0.000000 -0.997981
vn -0.368805 0.000000 -0.929507
vn -0.368805 0.000000 -0.929507
vn -0.637986 0.000000 -0.770048
vn -0.637986 0.000000 -0.770048
vn -0.844719 0.000000 -0.535210
vn -0.844719 0.000000 -0.535210
vn -0.968765 0.000000 -0.247982
vn -0.968765 0.000000 -0.247982
vn -0.997981 0.000000 0.063519
vn -0.997981 0.000000 0.063519
vn -0.929508 0.000000 0.368802
vn -0.929508 0.000000 0.368802
vn -0.770047 -0.000000 0.637987
vn -0.770047 -0.000000 0.637987
vn -0.535210 -0.000000 0.844719
vn -0.535210 -0.000000 0.844719
vn -0.247982 0.000000 0.968765
vn -0.247982 0.000000 0.968765
vn 0.063521 0.000000 0.997981
vn 0.063521 0.000000 0.997981
vn 0.368805 0.000000 0.929507
vn 0.368805 0.000000 0.929507
vn 0.637986 0.000000 0.770048
vn 0.637986 0.000000 0.770048
vn 0.844719 0.000000 0.535210
vn 0.844719 0.000000 0.535210
vn 0.968765 0.000000 0.247982
vn 0.968765 0.000000 0.247982
vn 0.997981 0.000000 -0.063519
vn 0.997981 0.000000 -0.063519
vn 0.929508 0.000000 -0.368803
vn 0.929508 0.000000 -0.368803
vn 0.770047 -0.000000 -0.637987
vn 0.770047 -0.000000 -0.637987
vn -0.000001 -1.000000 -0.000001
vn 0.000000 -1.000000 0.000000
vn 0.000000 -1.000000 0.000000
vn -0.000001 -1.000000 -0.000001
vn -0.000001 -1.000000 -0.000001
vn -0.000001 -1.000000 -0.000001
vn 0.000000 -1.000000 0.000000
vn 0.000000 -1.000000 0.000000
vn 0.000000 -1.000000 0.000000
vn 0.000000 -1.000000 0.000000
vn 0.000000 -1.000000 0.000000
vn 0.000000 -1.000000 0.000000
vn 0.000000 -1.000000 0.000000
vn 0.000000 -1.000000 0.000000
vn 0.000000 -1.000000 0.000000
vn 0.000000 -1.000000 0.000000
vn 0.000000 -1.000000 0.000000
vn 0.000000 -1.000000 0.000000
vn 0.000000 -1.000000 0.000000
vn 0.000000 -1.000000 0.000000
vn 0.000000 -1.000000 0.000000
vn 0.000000 -1.000000 0.000000
vn 0.000001 -1.000000 0.000001
vn 0.000001 -1.000000 0.000001
vn 0.000001 -1.000000 0.000001
vn 0.000001 -1.000000 0.000001
vn -0.000000 -1.000000 -0.000000
vn -0.000000 -1.000000 -0.000000
vn -0.000000 -1.000000 -0.000000
vn -0.000000 -1.000000 -0.000000
vn 0.000000 -1.000000 0.000000
vn 0.000000 -1.000000 0.000000
vn 0.000000 -1.000000 0.000000
vn 0.000000 -1.000000 0.000000
vn 0.000000 -1.000000 0.000000
vn 0.000000 -1.000000 0.000000
vn 0.000000 -1.000000 0.000000
vn 0.000000 -1.000000 0.000000
vn 0.000000 -1.000000 0.000000
vn 0.000000 -1.000000 0.000000
s 1
g pCylinder2
usemtl initialShadingGroup
f 1/21/1 2/22/2 22/43/3 21/42/4
f 2/22/2 3/23/5 23/44/6 22/43/3
f 3/23/5 4/24/7 24/45/8 23/44/6
f 4/24/7 5/25/9 25/46/10 24/45/8
f 5/25/9 6/26/11 26/47/12 25/46/10
f 6/26/11 7/27/13 27/48/14 26/47/12
f 7/27/13 8/28/15 28/49/16 27/48/14
f 8/28/15 9/29/17 29/50/18 28/49/16
f 9/29/17 10/30/19 30/51/20 29/50/18
f 10/30/19 11/31/21 31/52/22 30/51/20
f 11/31/21 12/32/23 32/53/24 31/52/22
f 12/32/23 13/33/25 33/54/26 32/53/24
f 13/33/25 14/34/27 34/55/28 33/54/26
f 14/34/27 15/35/29 35/56/30 34/55/28
f 15/35/29 16/36/31 36/57/32 35/56/30
f 16/36/31 17/37/33 37/58/34 36/57/32
f 17/37/33 18/38/35 38/59/36 37/58/34
f 18/38/35 19/39/37 39/60/38 38/59/36
f 19/39/37 20/40/39 40/61/40 39/60/38
f 20/40/39 1/41/1 21/62/4 40/61/40
s 2
f 2/2/41 1/1/42 41/83/43
f 3/3/44 2/2/41 41/83/43
f 4/4/45 3/3/44 41/83/43
f 5/5/46 4/4/45 41/83/43
f 6/6/47 5/5/46 41/83/43
f 7/7/48 6/6/47 41/83/43
f 8/8/49 7/7/48 41/83/43
f 9/9/50 8/8/49 41/83/43
f 10/10/51 9/9/50 41/83/43
f 11/11/52 10/10/51 41/83/43
f 12/12/53 11/11/52 41/83/43
f 13/13/54 12/12/53 41/83/43
f 14/14/55 13/13/54 41/83/43
f 15/15/56 14/14/55 41/83/43
f 16/16/57 15/15/56 41/83/43
f 17/17/58 16/16/57 41/83/43
f 18/18/59 17/17/58 41/83/43
f 19/19/60 18/18/59 41/83/43
f 20/20/61 19/19/60 41/83/43
f 1/1/42 20/20/61 41/83/43
s 3
f 21/81/62 22/80/63 42/84/64
f 22/80/63 23/79/65 42/84/64
f 23/79/65 24/78/66 42/84/64
f 24/78/66 25/77/67 42/84/64
f 25/77/67 26/76/68 42/84/64
f 26/76/68 27/75/69 42/84/64
f 27/75/69 28/74/70 42/84/64
f 28/74/70 29/73/71 42/84/64
f 29/73/71 30/72/72 42/84/64
f 30/72/72 31/71/73 42/84/64
f 31/71/73 32/70/74 42/84/64
f 32/70/74 33/69/75 42/84/64
f 33/69/75 34/68/76 42/84/64
f 34/68/76 35/67/77 42/84/64
f 35/67/77 36/66/78 42/84/64
f 36/66/78 37/65/79 42/84/64
f 37/65/79 38/64/80 42/84/64
f 38/64/80 39/63/81 42/84/64
f 39/63/81 40/82/82 42/84/64
f 40/82/82 21/81/62 42/84/64
s 4
f 44/85/83 43/86/84 63/87/85 64/88/86
f 45/89/87 44/85/83 64/88/86 65/90/88
f 46/91/89 45/89/87 65/90/88 66/92/90
f 47/93/91 46/91/89 66/92/90 67/94/92
f 48/95/93 47/93/91 67/94/92 68/96/94
f 49/97/95 48/95/93 68/96/94 69/98/96
f 50/99/97 49/97/95 69/98/96 70/100/98
f 51/101/99 50/99/97 70/100/98 71/102/100
f 52/103/101 51/101/99 71/102/100 72/104/102
f 53/105/103 52/103/101 72/104/102 73/106/104
f 54/107/105 53/105/103 73/106/104 74/108/106
f 55/109/107 54/107/105 74/108/106 75/110/108
f 56/111/109 55/109/107 75/110/108 76/112/110
f 57/113/111 56/111/109 76/112/110 77/114/112
f 58/115/113 57/113/111 77/114/112 78/116/114
f 59/117/115 58/115/113 78/116/114 79/118/116
f 60/119/117 59/117/115 79/118/116 80/120/118
f 61/121/119 60/119/117 80/120/118 81/122/120
f 62/123/121 61/121/119 81/122/120 82/124/122
f 43/125/84 62/123/121 82/124/122 63/126/85
s 5
f 64/88/123 63/87/124 83/127/125 84/128/126
f 65/90/127 64/88/123 84/128/126 85/129/128
f 66/92/129 65/90/127 85/129/128 86/130/130
f 67/94/131 66/92/129 86/130/130 87/131/132
f 68/96/133 67/94/131 87/131/132 88/132/134
f 69/98/135 68/96/133 88/132/134 89/133/136
f 70/100/137 69/98/135 89/133/136 90/134/138
f 71/102/139 70/100/137 90/134/138 91/135/140
f 72/104/141 71/102/139 91/135/140 92/136/142
f 73/106/143 72/104/141 92/136/142 93/137/144
f 74/108/145 73/106/143 93/137/144 94/138/146
f 75/110/147 74/108/145 94/138/146 95/139/148
f 76/112/149 75/110/147 95/139/148 96/140/150
f 77/114/151 76/112/149 96/140/150 97/141/152
f 78/116/153 77/114/151 97/141/152 98/142/154
f 79/118/155 78/116/153 98/142/154 99/143/156
f 80/120/157 79/118/155 99/143/156 100/144/158
f 81/122/159 80/120/157 100/144/158 101/145/160
f 82/124/161 81/122/159 101/145/160 102/146/162
f 63/126/124 82/124/161 102/146/162 83/147/125
s 6
f 84/128/163 83/127/164 103/148/165 104/149/166
f 85/129/167 84/128/163 104/149/166 105/150/168
f 86/130/169 85/129/167 105/150/168 106/151/170
f 87/131/171 86/130/169 106/151/170 107/152/172
f 88/132/173 87/131/171 107/152/172 108/153/174
f 89/133/175 88/132/173 108/153/174 109/154/176
f 90/134/177 89/133/175 109/154/176 110/155/178
f 91/135/179 90/134/177 110/155/178 111/156/180
f 92/136/181 91/135/179 111/156/180 112/157/182
f 93/137/183 92/136/181 112/157/182 113/158/184
f 94/138/185 93/137/183 113/158/184 114/159/186
f 95/139/187 94/138/185 114/159/186 115/160/188
f 96/140/189 95/139/187 115/160/188 116/161/190
f 97/141/191 96/140/189 116/161/190 117/162/192
f 98/142/193 97/141/191 117/162/192 118/163/194
f 99/143/195 98/142/193 118/163/194 119/164/196
f 100/144/197 99/143/195 119/164/196 120/165/198
f 101/145/199 100/144/197 120/165/198 121/166/200
f 102/146/201 101/145/199 121/166/200 122/167/202
f 83/147/164 102/146/201 122/167/202 103/168/165
s 7
f 104/149/203 103/148/204 43/169/205 44/170/206
f 105/150/207 104/149/203 44/170/206 45/171/208
f 106/151/209 105/150/207 45/171/208 46/172/210
f 107/152/211 106/151/209 46/172/210 47/173/212
f 108/153/213 107/152/211 47/173/212 48/174/214
f 109/154/215 108/153/213 48/174/214 49/175/216
f 110/155/217 109/154/215 49/175/216 50/176/218
f 111/156/219 110/155/217 50/176/218 51/177/220
f 112/157/221 111/156/219 51/177/220 52/178/222
f 113/158/223 112/157/221 52/178/222 53/179/224
f 114/159/225 113/158/223 53/179/224 54/180/226
f 115/160/227 114/159/225 54/180/226 55/181/228
f 116/161/229 115/160/227 55/181/228 56/182/230
f 117/162/231 116/161/229 56/182/230 57/183/232
f 118/163/233 117/162/231 57/183/232 58/184/234
f 119/164/235 118/163/233 58/184/234 59/185/236
f 120/165/237 119/164/235 59/185/236 60/186/238
f 121/166/239 120/165/237 60/186/238 61/187/240
f 122/167/241 121/166/239 61/187/240 62/188/242
f 103/168/204 122/167/241 62/188/242 43/189/205
