# This file uses centimeters as units for non-parametric coordinates.

mtllib Speed-up_sweet.mtl
g default
v 1.272033 0.903042 1.085698
v 1.264231 0.873321 1.121392
v 1.443016 0.898733 1.119487
v 1.435213 0.869011 1.155181
v 1.252530 0.608329 1.146804
v 1.257408 0.571810 1.117463
v 1.428390 0.567501 1.151252
v 1.423512 0.604019 1.180593
v 1.366435 0.818541 0.597215
v 1.361557 0.855059 0.626557
v 1.532539 0.850749 0.660345
v 1.537417 0.814231 0.631004
v 1.346932 0.523827 0.658321
v 1.354734 0.553548 0.622628
v 1.525717 0.549239 0.656416
v 1.517914 0.519517 0.692110
v 1.409673 0.928431 1.291999
v 1.412846 0.936514 1.276974
v 1.238691 0.932740 1.258211
v 1.241864 0.940823 1.243185
v 1.223045 0.578402 1.292191
v 1.225374 0.567370 1.278999
v 1.394027 0.574093 1.325980
v 1.396356 0.563061 1.312788
v 1.395232 0.832885 0.453323
v 1.390574 0.854948 0.479707
v 1.566214 0.828576 0.487111
v 1.561556 0.850639 0.513496
v 1.551945 0.505402 0.518103
v 1.545599 0.489237 0.548154
v 1.380962 0.509711 0.484314
v 1.374616 0.493546 0.514365
vt 0.001854 0.108817
vt 0.234765 0.108817
vt 0.234765 0.391318
vt 0.001854 0.391317
vt 0.001854 0.088810
vt 0.234765 0.088810
vt 0.001854 0.411325
vt 0.234766 0.411325
vt 0.001854 0.019354
vt 0.234765 0.019354
vt 0.234766 0.489461
vt 0.001854 0.489461
vt 0.234765 0.001992
vt 0.001854 0.001992
vt 0.001854 0.498142
vt 0.234766 0.498142
vt 0.288782 0.108817
vt 0.521693 0.108817
vt 0.521693 0.391317
vt 0.288782 0.391317
vt 0.521693 0.088810
vt 0.288782 0.088810
vt 0.521693 0.411325
vt 0.288782 0.411325
vt 0.288782 0.019354
vt 0.521693 0.019354
vt 0.521693 0.489461
vt 0.288782 0.489461
vt 0.521693 0.001992
vt 0.288782 0.001992
vt 0.288782 0.498142
vt 0.521693 0.498142
vt 0.529253 0.965259
vt 0.309893 0.965258
vt 0.309893 0.643470
vt 0.529253 0.643470
vt 0.278497 0.963072
vt 0.045586 0.963072
vt 0.045586 0.648403
vt 0.278497 0.648403
vt 0.615683 0.119775
vt 0.645430 0.101319
vt 0.883432 0.101319
vt 0.913179 0.119774
vt 0.913179 0.380360
vt 0.883432 0.398815
vt 0.645429 0.398815
vt 0.615683 0.380360
vt 0.596723 0.029244
vt 0.605307 0.021237
vt 0.923555 0.021237
vt 0.932139 0.029244
vt 0.926727 0.462883
vt 0.909560 0.478898
vt 0.619302 0.478898
vt 0.602134 0.462883
vt 0.609495 0.616901
vt 0.639867 0.598058
vt 0.882873 0.598058
vt 0.913245 0.616901
vt 0.913245 0.882965
vt 0.882873 0.901808
vt 0.639867 0.901808
vt 0.609495 0.882965
vt 0.595661 0.532643
vt 0.613190 0.516291
vt 0.909550 0.516291
vt 0.927079 0.532643
vt 0.932604 0.975399
vt 0.923840 0.983575
vt 0.598900 0.983575
vt 0.590136 0.975399
vn -0.190378 0.102041 0.976393
vn -0.190378 0.102041 0.976393
vn -0.190378 0.102041 0.976393
vn -0.190378 0.102041 0.976393
vn 0.190378 -0.102040 -0.976393
vn 0.190378 -0.102040 -0.976393
vn 0.190378 -0.102040 -0.976393
vn 0.190378 -0.102040 -0.976393
vn -0.043910 -0.994473 0.095368
vn -0.043910 -0.994473 0.095368
vn -0.043910 -0.994473 0.095368
vn -0.043910 -0.994473 0.095368
vn 0.043910 0.994473 -0.095368
vn 0.043910 0.994473 -0.095368
vn 0.043910 0.994473 -0.095368
vn 0.043910 0.994473 -0.095368
vn 0.980728 -0.024718 0.193806
vn 0.980728 -0.024718 0.193806
vn 0.980728 -0.024718 0.193806
vn 0.980728 -0.024718 0.193806
vn 0.980728 -0.024718 0.193806
vn 0.980728 -0.024718 0.193806
vn 0.980728 -0.024718 0.193806
vn 0.980728 -0.024718 0.193806
vn -0.980728 0.024718 -0.193806
vn -0.980728 0.024718 -0.193806
vn -0.980728 0.024718 -0.193806
vn -0.980728 0.024718 -0.193806
vn -0.980728 0.024718 -0.193806
vn -0.980728 0.024718 -0.193806
vn -0.980728 0.024718 -0.193806
vn -0.980728 0.024718 -0.193806
vn -0.103567 0.775357 0.622974
vn -0.103567 0.775357 0.622974
vn -0.103567 0.775357 0.622974
vn -0.103567 0.775357 0.622974
vn -0.165668 -0.631042 0.757852
vn -0.165668 -0.631042 0.757852
vn -0.165668 -0.631042 0.757852
vn -0.165668 -0.631042 0.757852
vn 0.165667 0.631047 -0.757849
vn 0.165667 0.631047 -0.757849
vn 0.165667 0.631047 -0.757849
vn 0.165667 0.631047 -0.757849
vn 0.103569 -0.775350 -0.622982
vn 0.103569 -0.775350 -0.622982
vn 0.103569 -0.775350 -0.622982
vn 0.103569 -0.775350 -0.622982
vn 0.114106 0.877672 -0.465480
vn 0.114106 0.877672 -0.465480
vn 0.114106 0.877672 -0.465480
vn 0.114106 0.877672 -0.465480
vn -0.980728 0.024718 -0.193806
vn -0.980728 0.024718 -0.193806
vn -0.980728 0.024718 -0.193806
vn -0.980728 0.024718 -0.193806
vn -0.980728 0.024718 -0.193806
vn -0.980728 0.024718 -0.193806
vn 0.033115 -0.956582 -0.289577
vn 0.033115 -0.956582 -0.289577
vn 0.033115 -0.956582 -0.289577
vn 0.033115 -0.956582 -0.289577
vn 0.980728 -0.024718 0.193806
vn 0.980728 -0.024718 0.193806
vn 0.980728 -0.024718 0.193806
vn 0.980728 -0.024718 0.193806
vn 0.980728 -0.024718 0.193806
vn 0.980728 -0.024718 0.193806
vn -0.033115 0.956582 0.289576
vn -0.033115 0.956582 0.289576
vn -0.033115 0.956582 0.289576
vn -0.033115 0.956582 0.289576
vn 0.980728 -0.024718 0.193806
vn 0.980728 -0.024718 0.193806
vn 0.980728 -0.024718 0.193806
vn 0.980728 -0.024718 0.193806
vn 0.980728 -0.024718 0.193806
vn 0.980728 -0.024718 0.193806
vn -0.114106 -0.877673 0.465478
vn -0.114106 -0.877673 0.465478
vn -0.114106 -0.877673 0.465478
vn -0.114106 -0.877673 0.465478
vn -0.980728 0.024718 -0.193806
vn -0.980728 0.024718 -0.193806
vn -0.980728 0.024718 -0.193806
vn -0.980728 0.024718 -0.193806
vn -0.980728 0.024718 -0.193806
vn -0.980728 0.024718 -0.193806
vn -0.068865 0.884571 0.461294
vn -0.068865 0.884571 0.461294
vn -0.068865 0.884571 0.461294
vn -0.068865 0.884571 0.461294
vn -0.141990 -0.771553 0.620117
vn -0.141990 -0.771553 0.620117
vn -0.141990 -0.771553 0.620117
vn -0.141990 -0.771553 0.620117
vn 0.141990 0.771553 -0.620116
vn 0.141990 0.771553 -0.620116
vn 0.141990 0.771553 -0.620116
vn 0.141990 0.771553 -0.620116
vn 0.068865 -0.884569 -0.461297
vn 0.068865 -0.884569 -0.461297
vn 0.068865 -0.884569 -0.461297
vn 0.068865 -0.884569 -0.461297
s off
g SWEETS:pCube1
usemtl aiStandardSurface22SG
f 17/33/1 19/34/2 21/35/3 23/36/4
f 25/37/5 27/38/6 29/39/7 31/40/8
f 13/1/9 16/2/10 7/3/11 6/4/12
f 11/17/13 10/18/14 1/19/15 3/20/16
f 3/41/17 4/42/18 8/43/19 7/44/20 16/45/21 15/46/22 12/47/23 11/48/24
f 10/57/25 9/58/26 14/59/27 13/60/28 6/61/29 5/62/30 2/63/31 1/64/32
f 1/19/33 2/23/34 4/24/35 3/20/36
f 5/7/37 6/4/38 7/3/39 8/8/40
f 9/21/41 10/18/42 11/17/43 12/22/44
f 13/1/45 14/5/46 15/6/47 16/2/48
f 4/24/49 2/23/50 20/27/51 18/28/52
f 2/63/53 5/62/54 22/69/55 21/70/56 19/71/57 20/72/58
f 5/7/59 8/8/60 24/11/61 22/12/62
f 8/43/63 4/42/64 18/49/65 17/50/66 23/51/67 24/52/68
f 9/21/69 12/22/70 28/25/71 26/26/72
f 12/47/73 15/46/74 30/53/75 29/54/76 27/55/77 28/56/78
f 15/6/79 14/5/80 32/9/81 30/10/82
f 14/59/83 9/58/84 26/65/85 25/66/86 31/67/87 32/68/88
f 17/31/89 18/28/90 20/27/91 19/32/92
f 21/15/93 22/12/94 24/11/95 23/16/96
f 25/29/97 26/26/98 28/25/99 27/30/100
f 29/13/101 30/10/102 32/9/103 31/14/104
